<svg width="494" height="481" viewBox="0 0 494 481" fill="none" xmlns="http://www.w3.org/2000/svg">
<g clip-path="url(#clip0_1_5451)">
<path d="M314.794 107.789H288.538V331.635C288.538 335.147 287.846 338.625 286.502 341.87C285.158 345.114 283.188 348.062 280.705 350.546C278.221 353.029 275.273 354.999 272.028 356.343C268.784 357.687 265.306 358.379 261.794 358.379H61.0566V358.635C61.0566 362.147 61.7484 365.625 63.0924 368.87C64.4364 372.114 66.4064 375.062 68.8898 377.546C71.3732 380.029 74.3214 381.999 77.5662 383.343C80.8109 384.687 84.2886 385.379 87.8007 385.379H314.794C318.306 385.379 321.784 384.687 325.028 383.343C328.273 381.999 331.221 380.029 333.705 377.546C336.188 375.062 338.158 372.114 339.502 368.87C340.846 365.625 341.538 362.147 341.538 358.635V134.533C341.538 127.44 338.72 120.637 333.705 115.622C328.689 110.606 321.887 107.789 314.794 107.789Z" fill="#F2F2F2"/>
<path d="M439.259 463.515C439.724 463.537 440.184 463.415 440.577 463.166C440.97 462.917 441.277 462.553 441.457 462.124C441.636 461.694 441.679 461.22 441.581 460.766C441.482 460.311 441.245 459.898 440.904 459.582L440.748 458.964C440.769 458.914 440.789 458.865 440.81 458.815C441.278 457.709 442.063 456.766 443.065 456.105C444.068 455.443 445.243 455.093 446.444 455.097C447.646 455.102 448.818 455.461 449.816 456.13C450.814 456.799 451.591 457.748 452.051 458.857C453.89 463.285 456.231 467.721 456.807 472.403C457.061 474.473 456.954 476.571 456.491 478.604C460.809 469.184 463.051 458.945 463.066 448.583C463.067 445.982 462.922 443.384 462.633 440.8C462.394 438.681 462.062 436.578 461.638 434.49C459.324 423.158 454.354 412.538 447.138 403.5C443.646 401.594 440.821 398.664 439.045 395.103C438.402 393.824 437.947 392.457 437.695 391.047C438.089 391.099 439.181 385.099 438.884 384.73C439.433 383.897 440.415 383.483 441.015 382.67C443.997 378.627 448.106 379.333 450.251 384.827C454.834 387.14 454.878 390.975 452.066 394.664C450.278 397.011 450.032 400.186 448.462 402.699C448.624 402.906 448.792 403.106 448.953 403.313C451.905 407.108 454.477 411.184 456.634 415.481C456.11 410.667 456.736 405.797 458.461 401.272C460.209 397.054 463.485 393.502 466.371 389.857C467.134 388.877 468.171 388.146 469.349 387.756C470.528 387.365 471.796 387.333 472.993 387.663C474.19 387.993 475.262 388.67 476.074 389.61C476.886 390.549 477.401 391.708 477.555 392.94C477.561 392.994 477.567 393.047 477.572 393.101C477.144 393.343 476.724 393.6 476.314 393.871C475.798 394.216 475.398 394.708 475.167 395.283C474.936 395.859 474.884 396.491 475.018 397.096C475.153 397.702 475.466 398.253 475.919 398.677C476.372 399.101 476.942 399.378 477.555 399.473L477.617 399.482C477.465 401.027 477.195 402.558 476.81 404.062C480.512 418.378 472.52 423.592 461.109 423.826C460.857 423.955 460.611 424.084 460.359 424.207C462.526 430.348 463.885 436.744 464.403 443.235C464.696 447.064 464.678 450.911 464.351 454.738L464.37 454.602C465.197 450.347 467.467 446.508 470.797 443.732C475.743 439.67 482.73 438.173 488.065 434.908C488.632 434.544 489.292 434.349 489.965 434.348C490.639 434.346 491.299 434.537 491.868 434.899C492.437 435.26 492.891 435.776 493.176 436.387C493.461 436.998 493.565 437.677 493.476 438.345L493.455 438.488C492.659 438.812 491.885 439.185 491.136 439.605C490.707 439.847 490.288 440.103 489.877 440.375C489.362 440.719 488.962 441.212 488.731 441.787C488.5 442.363 488.448 442.995 488.582 443.6C488.716 444.206 489.03 444.757 489.483 445.181C489.935 445.605 490.505 445.882 491.118 445.977L491.181 445.986C491.226 445.993 491.265 445.999 491.31 446.006C489.951 449.251 488.044 452.237 485.672 454.835C483.357 467.332 473.416 468.518 462.781 464.878H462.775C461.608 469.949 459.918 474.884 457.731 479.605H439.71C439.646 479.404 439.588 479.198 439.53 478.997C441.198 479.102 442.872 479.003 444.516 478.701C443.179 477.06 441.842 475.406 440.505 473.766C440.475 473.735 440.447 473.703 440.421 473.669C439.743 472.829 439.058 471.996 438.38 471.157L438.38 471.156C438.343 468.582 438.639 466.014 439.259 463.515Z" fill="#F2F2F2"/>
<path d="M240.781 77.3395C241.439 78.3363 242.306 79.1782 243.321 79.8072C244.336 80.4361 245.476 80.837 246.661 80.9821C247.847 81.1272 249.05 81.013 250.187 80.6476C251.324 80.2821 252.368 79.6739 253.247 78.8653L290.712 95.768L297.935 86.5547L253.29 66.8044C251.819 65.4263 249.894 64.6357 247.878 64.5825C245.863 64.5292 243.898 65.2171 242.356 66.5157C240.815 67.8143 239.802 69.6334 239.512 71.6283C239.222 73.6232 239.673 75.6552 240.781 77.3395Z" fill="#A0616A"/>
<path d="M401.565 87.8791L405.281 108.935C405.454 109.918 405.42 110.925 405.181 111.894C404.942 112.862 404.503 113.77 403.892 114.559C403.281 115.348 402.513 116 401.635 116.474C400.757 116.948 399.79 117.233 398.796 117.311L335.657 122.277L261.44 89.0611L270.304 72.2339L334.731 92.636L401.565 87.8791Z" fill="#6C63FF"/>
<path d="M253.794 72.7886H26.8007C12.0304 72.7886 0.0566406 84.7623 0.0566406 99.5327V323.635C0.0566406 338.405 12.0304 350.379 26.8007 350.379H253.794C268.564 350.379 280.538 338.405 280.538 323.635V99.5327C280.538 84.7623 268.564 72.7886 253.794 72.7886Z" fill="#F2F2F2"/>
<path d="M26.8008 78.2886C24.011 78.2886 21.2484 78.8381 18.671 79.9057C16.0935 80.9733 13.7516 82.5381 11.7789 84.5108C9.8062 86.4835 8.24135 88.8255 7.17374 91.4029C6.10612 93.9804 5.55664 96.7429 5.55664 99.5327V323.635C5.55664 329.27 7.79485 334.673 11.7789 338.657C15.7629 342.641 21.1665 344.879 26.8008 344.879H171.673C185.247 344.879 198.688 342.206 211.229 337.011C223.77 331.817 235.165 324.203 244.763 314.605C254.361 305.006 261.975 293.612 267.169 281.071C272.364 268.53 275.038 255.089 275.038 241.515V99.5327C275.038 96.7429 274.488 93.9804 273.42 91.4029C272.353 88.8255 270.788 86.4835 268.815 84.5108C266.843 82.5381 264.501 80.9733 261.923 79.9057C259.346 78.8381 256.583 78.2886 253.793 78.2886H26.8008Z" fill="white"/>
<path d="M203.752 146.3H76.346C75.1769 146.3 74.0557 145.836 73.2291 145.009C72.4024 144.182 71.938 143.061 71.938 141.892C71.938 140.723 72.4024 139.602 73.2291 138.775C74.0557 137.948 75.1769 137.484 76.346 137.484H203.752C204.921 137.484 206.043 137.948 206.869 138.775C207.696 139.602 208.16 140.723 208.16 141.892C208.16 143.061 207.696 144.182 206.869 145.009C206.043 145.836 204.921 146.3 203.752 146.3Z" fill="#F2F2F2"/>
<path d="M203.752 240.3H76.346C75.1769 240.3 74.0557 239.836 73.2291 239.009C72.4024 238.182 71.938 237.061 71.938 235.892C71.938 234.723 72.4024 233.602 73.2291 232.775C74.0557 231.948 75.1769 231.484 76.346 231.484H203.752C204.921 231.484 206.043 231.948 206.869 232.775C207.696 233.602 208.16 234.723 208.16 235.892C208.16 237.061 207.696 238.182 206.869 239.009C206.043 239.836 204.921 240.3 203.752 240.3Z" fill="#F2F2F2"/>
<path d="M255.489 193.331H24.6089C23.4399 193.331 22.3187 192.866 21.492 192.04C20.6653 191.213 20.2009 190.092 20.2009 188.923C20.2009 187.754 20.6653 186.632 21.492 185.806C22.3187 184.979 23.4399 184.515 24.6089 184.515H255.489C256.659 184.515 257.78 184.979 258.606 185.806C259.433 186.632 259.897 187.754 259.897 188.923C259.897 190.092 259.433 191.213 258.606 192.04C257.78 192.866 256.659 193.331 255.489 193.331Z" fill="#F2F2F2"/>
<path d="M393.588 180.687L370.588 229.687L459.065 220.726L440.596 173.687L393.588 180.687Z" fill="#A0616A"/>
<path d="M414.158 462.32L405.769 462.249L402.056 429.138L414.436 429.243L414.158 462.32Z" fill="#A0616A"/>
<path d="M387.287 475.659C387.28 476.654 387.667 477.611 388.364 478.32C389.061 479.029 390.011 479.433 391.006 479.443L407.684 479.582L410.604 473.663L411.677 479.612L417.97 479.669L416.381 458.452L414.191 458.307L405.261 457.691L402.379 457.498L402.329 463.501L388.931 472.589C388.429 472.929 388.017 473.387 387.731 473.921C387.445 474.456 387.293 475.053 387.287 475.659Z" fill="#2F2E41"/>
<path d="M321.323 462.358L313.325 459.825L319.504 427.085L331.308 430.822L321.323 462.358Z" fill="#A0616A"/>
<path d="M291.719 467.214C291.42 468.162 291.509 469.19 291.967 470.073C292.425 470.956 293.214 471.621 294.162 471.922L310.064 476.956L314.593 472.156L313.871 478.158L319.869 480.061L324.584 459.314L322.534 458.531L314.179 455.319L311.481 454.288L309.669 460.011L294.192 464.761C293.612 464.939 293.085 465.256 292.654 465.683C292.223 466.11 291.902 466.635 291.719 467.214Z" fill="#2F2E41"/>
<path d="M455.035 206.946L374.588 221.687C374.588 221.687 361.685 231.339 365.136 234.796C368.588 238.252 369.123 237.717 366.856 239.985C364.588 242.252 359.685 245.284 359.636 247.268C359.588 249.252 323.588 338.252 323.588 338.252L322.787 340.424L321.588 344.731L311.287 454.924L324.287 459.424L352.588 354.418L402.247 273.914C402.247 273.914 407.175 345.703 407.381 350.478C407.381 350.478 407.898 353.412 407.588 355.252C407.153 357.836 405.696 358.878 404.588 361.252C390.428 391.594 402.287 457.924 402.287 457.924L416.287 458.424L462.646 277.896C462.646 277.896 478.482 229.64 455.035 206.946Z" fill="#2F2E41"/>
<path d="M431.336 71.9347L399.112 68.5864L390.763 79.4257L381.036 84.6059C376.92 86.7981 373.523 90.1295 371.25 94.2016C368.978 98.2738 367.926 102.914 368.222 107.568L379.588 173.687C379.588 173.687 369.987 195.306 376.588 200.687C383.189 206.068 363.684 229.131 377.787 222.424C391.891 215.717 460.588 213.687 460.588 213.687L447.588 176.687L457.299 140.33L458.368 109.844C458.568 104.148 456.877 98.5451 453.56 93.9097C450.243 89.2742 445.485 85.8665 440.029 84.2176L438.671 83.8073L431.336 71.9347Z" fill="#6C63FF"/>
<path d="M475.701 47.2303C475.912 56.3133 472.517 65.1083 467.641 72.8333C466.192 68.3235 463.587 64.219 460.871 60.3064C462.24 68.7706 460.781 77.4502 456.721 85.0019C456.578 85.1043 456.429 85.1994 456.276 85.2868C452.302 87.6778 447.262 88.6463 442.962 86.9194C451.847 77.3427 452.977 61.4755 445.529 50.7337C443.42 47.6857 440.693 44.99 439.387 41.5213C437.324 35.9868 439.307 29.8931 440.557 24.1228C441.727 18.7524 441.931 12.3615 438.328 8.4257C438.713 7.87567 439.237 7.43785 439.847 7.1571C440.457 6.87635 441.13 6.76276 441.798 6.82797C444.02 7.14176 445.637 9.07262 446.667 11.0613C447.697 13.0499 448.376 15.254 449.811 16.9716C452.469 20.1866 456.995 20.9467 460.81 22.6411C470.047 26.7557 475.479 37.1234 475.701 47.2303Z" fill="#2F2E41"/>
<path d="M-79.2129 479.924C-79.2139 480.253 -79.1457 480.578 -79.0121 480.882C-78.8784 481.186 -78.6819 481.462 -78.434 481.694C-78.1861 481.927 -77.8918 482.111 -77.5677 482.236C-77.2436 482.361 -76.8963 482.425 -76.5457 482.424H491.12C491.827 482.424 492.506 482.161 493.006 481.692C493.506 481.223 493.787 480.587 493.787 479.924C493.787 479.261 493.506 478.625 493.006 478.156C492.506 477.688 491.827 477.424 491.12 477.424H-76.5457C-76.8963 477.423 -77.2436 477.487 -77.5677 477.613C-77.8918 477.738 -78.1861 477.922 -78.434 478.154C-78.6819 478.387 -78.8783 478.663 -79.0119 478.966C-79.1456 479.27 -79.2139 479.596 -79.2129 479.924Z" fill="#D9D9D9"/>
<path d="M477.695 257.748C482.666 257.748 486.695 253.719 486.695 248.748C486.695 243.777 482.666 239.748 477.695 239.748C472.725 239.748 468.695 243.777 468.695 248.748C468.695 253.719 472.725 257.748 477.695 257.748Z" fill="#6C63FF"/>
<path d="M397.943 42.037C398.471 40.1894 394.832 51.4833 396.588 51.6872C404.585 52.6046 415.562 57.3804 421.131 59.6084C421.382 59.5793 421.633 59.5501 421.877 59.5137C422.474 59.4482 423.057 59.3536 423.632 59.2444C436.601 56.7906 441.588 36.8692 441.588 36.6872C441.588 35.7917 439.439 11.1942 436.053 10.8302C435.163 10.7337 434.269 10.6851 433.375 10.6846H424.972C423.234 10.3099 421.471 10.0545 419.698 9.9201H419.683C402.768 8.63133 389.43 18.9413 390.677 31.4867C390.684 31.5012 390.699 31.5158 390.707 31.5304C391.068 32.0692 391.385 32.5789 391.666 33.0667C391.939 33.5254 392.167 33.9623 392.366 34.3773C393.908 37.581 389.945 41.6123 392.573 42.3647C396.068 43.3655 383.381 76.2582 397.215 76.2582C390.485 78.1714 396.487 47.1338 397.943 42.037Z" fill="#2F2E41"/>
<path d="M413.043 61.3369C424.03 61.3369 432.937 52.4303 432.937 41.4434C432.937 30.4564 424.03 21.5498 413.043 21.5498C402.056 21.5498 393.149 30.4564 393.149 41.4434C393.149 52.4303 402.056 61.3369 413.043 61.3369Z" fill="#A0616A"/>
<path d="M390.677 32.5715C391.009 32.7463 391.334 32.9064 391.666 33.0666C392.012 33.2341 392.359 33.4016 392.706 33.5544C399.367 36.5761 404.789 36.911 408.079 32.5715C408.167 30.2881 408.68 28.0412 409.591 25.9457C409.43 28.2874 410.048 30.6167 411.347 32.5715H417.972C424.795 37.1003 428.299 37.5736 423.563 52.4416C422.243 56.5846 416.992 80.6923 419.058 84.2674C419.656 84.2018 426.013 57.7964 426.588 57.6872C439.557 55.2335 447.797 33.8675 446.742 32.6589C446.747 29.2218 445.957 25.8301 444.433 22.7493C442.505 18.8461 439.5 15.5766 435.772 13.3276C433.55 12.2503 431.234 11.3801 428.853 10.7282C428.794 10.7136 428.742 10.699 428.683 10.6845C427.953 10.4879 427.208 10.3059 426.462 10.153C424.923 9.82796 423.367 9.59215 421.8 9.44672C421.69 9.43943 421.579 9.43213 421.476 9.43213C420.85 9.43359 420.236 9.60201 419.698 9.92C419.69 9.92 419.69 9.92725 419.683 9.92725C419.298 10.1522 418.962 10.4517 418.695 10.8082C418.223 11.4082 417.969 12.1497 417.972 12.9125H410.595C410.322 12.9125 410.049 12.9198 409.776 12.9343C404.852 13.1026 400.169 15.102 396.642 18.5414C393.115 21.9808 390.998 26.6126 390.706 31.5303C390.684 31.8798 390.677 32.222 390.677 32.5715Z" fill="#2F2E41"/>
<path d="M434.173 26.212C441.412 26.212 447.279 20.3442 447.279 13.106C447.279 5.86775 441.412 0 434.173 0C426.935 0 421.067 5.86775 421.067 13.106C421.067 20.3442 426.935 26.212 434.173 26.212Z" fill="#2F2E41"/>
<path d="M477.796 252.459C478.436 251.45 478.849 250.315 479.006 249.131C479.164 247.947 479.062 246.743 478.709 245.602C478.355 244.461 477.758 243.411 476.959 242.524C476.16 241.636 475.177 240.933 474.079 240.463L474.144 199.361L462.78 196.548L463.06 245.366C462.406 247.272 462.474 249.353 463.251 251.213C464.028 253.073 465.461 254.583 467.277 255.458C469.094 256.332 471.168 256.51 473.106 255.957C475.045 255.404 476.714 254.16 477.796 252.459Z" fill="#A0616A"/>
<path d="M421.52 101.477L439.204 89.4589C440.029 88.8982 440.962 88.5162 441.944 88.3375C442.925 88.1587 443.933 88.1872 444.903 88.421C445.873 88.6548 446.783 89.0888 447.575 89.6951C448.367 90.3014 449.023 91.0667 449.502 91.9417L479.906 147.5L480.022 228.811L461.04 227.621L453.248 160.492L421.52 101.477Z" fill="#6C63FF"/>
<path d="M285.702 285.877H96.7021C92.5913 285.877 88.6488 287.51 85.742 290.417C82.8352 293.324 81.2021 297.267 81.2021 301.377C81.2021 305.488 82.8352 309.431 85.742 312.338C88.6488 315.244 92.5913 316.877 96.7021 316.877H285.702C289.813 316.877 293.756 315.244 296.662 312.338C299.569 309.431 301.202 305.488 301.202 301.377C301.202 297.267 299.569 293.324 296.662 290.417C293.756 287.51 289.813 285.877 285.702 285.877Z" fill="white"/>
<path d="M285.702 317.877H96.7021C92.3261 317.877 88.1292 316.139 85.0349 313.045C81.9405 309.95 80.2021 305.754 80.2021 301.377C80.2021 297.001 81.9405 292.805 85.0349 289.71C88.1292 286.616 92.3261 284.877 96.7021 284.877H285.702C290.078 284.877 294.275 286.616 297.369 289.71C300.464 292.805 302.202 297.001 302.202 301.377C302.202 305.754 300.464 309.95 297.369 313.045C294.275 316.139 290.078 317.877 285.702 317.877ZM96.7021 286.877C92.8565 286.877 89.1684 288.405 86.4491 291.124C83.7298 293.844 82.2021 297.532 82.2021 301.377C82.2021 305.223 83.7298 308.911 86.4491 311.63C89.1684 314.35 92.8565 315.877 96.7021 315.877H285.702C289.548 315.877 293.236 314.35 295.955 311.63C298.674 308.911 300.202 305.223 300.202 301.377C300.202 297.532 298.674 293.844 295.955 291.124C293.236 288.405 289.548 286.877 285.702 286.877H96.7021Z" fill="#6C63FF"/>
<path d="M296.847 353.52H213.44C212.271 353.52 211.15 353.056 210.324 352.229C209.497 351.402 209.032 350.281 209.032 349.112C209.032 347.943 209.497 346.822 210.324 345.995C211.15 345.169 212.271 344.704 213.44 344.704H296.847C298.016 344.704 299.137 345.169 299.964 345.995C300.79 346.822 301.255 347.943 301.255 349.112C301.255 350.281 300.79 351.402 299.964 352.229C299.137 353.056 298.016 353.52 296.847 353.52Z" fill="#6C63FF"/>
</g>
<defs>
<clipPath id="clip0_1_5451">
<rect width="493.461" height="480.848" fill="white" transform="translate(0.0566406)"/>
</clipPath>
</defs>
</svg>
