<svg width="171" height="130" viewBox="0 0 171 130" fill="none" xmlns="http://www.w3.org/2000/svg">
<path d="M143.324 129.33L34.3901 129.368C28.9175 129.37 24.0153 126.542 21.2774 121.803C19.9083 119.434 19.2236 116.834 19.2227 114.235C19.2218 111.635 19.905 109.035 21.2722 106.665L75.7046 7.57363C78.4396 2.83295 83.3398 0.00189329 88.8124 9.492e-07C94.285 -0.00189139 99.1871 2.82578 101.925 7.56456L156.433 106.63C157.799 108.994 158.482 111.59 158.482 114.188C158.482 116.786 157.799 119.386 156.432 121.757C153.697 126.497 148.797 129.328 143.324 129.33ZM20.592 114.233C20.5918 116.599 32.6123 111.5 33.8576 113.655C36.3486 117.966 29.4107 128.003 34.3896 128.002C34.3896 128.002 152.76 125.386 155.248 121.074C156.492 118.918 157.114 116.552 157.113 114.187C157.112 111.822 156.489 109.457 155.243 107.302L100.735 8.23579C98.2512 3.93723 93.7918 1.36459 88.8129 1.36631C83.8363 1.36804 20.5922 111.866 20.592 114.233Z" fill="#3F3D56"/>
<path d="M120.599 107.477C148.142 107.477 170.47 85.1494 170.47 57.6067C170.47 30.0641 148.142 7.73633 120.599 7.73633C93.0565 7.73633 70.7288 30.0641 70.7288 57.6067C70.7288 85.1494 93.0565 107.477 120.599 107.477Z" fill="#E00909"/>
<path d="M120.608 88.1772C123.137 88.1772 125.187 86.1271 125.187 83.5982C125.187 81.0694 123.137 79.0193 120.608 79.0193C118.079 79.0193 116.029 81.0694 116.029 83.5982C116.029 86.1271 118.079 88.1772 120.608 88.1772Z" fill="white"/>
<path d="M120.589 27.0351C120.168 29.8301 120.922 30.4149 120.926 42.4643C120.93 54.5137 123.43 70.6689 120.604 70.6699C117.777 70.6708 116.744 37.3299 106.929 34.3791C95.3899 30.9097 121.95 17.9874 120.589 27.0351Z" fill="white"/>
<path d="M53.6659 83.0682L49.1602 92.5882C54.6072 88.6823 63.1152 85.3153 69.8856 83.512C63.5773 80.4649 55.8582 75.5519 51.2467 70.6878L53.8382 80.7469C23.4555 74.5585 1.63723 51.2505 1.62799 24.5509L0.530518 24.1733C0.540164 52.0617 22.0566 76.7499 53.6659 83.0682Z" fill="#3F3D56"/>
</svg>
