<svg width="601" height="332" viewBox="0 0 601 332" fill="none" xmlns="http://www.w3.org/2000/svg">
<g clip-path="url(#clip0_1_5420)">
<path d="M381.896 284.351H51.5406C49.6069 284.349 47.7531 283.58 46.3858 282.213C45.0184 280.845 44.2493 278.991 44.2471 277.058V84.7379C44.2492 82.8042 45.0183 80.9503 46.3857 79.583C47.753 78.2156 49.6069 77.4465 51.5406 77.4443H381.896C383.83 77.4466 385.683 78.2157 387.051 79.583C388.418 80.9504 389.187 82.8042 389.189 84.7379V277.058C389.187 278.991 388.418 280.845 387.051 282.212C385.683 283.58 383.83 284.349 381.896 284.351Z" fill="#E6E6E6"/>
<path d="M101.666 158.325C93.4925 158.325 85.6535 161.572 79.8739 167.351C74.0942 173.131 70.8472 180.97 70.8472 189.144C70.8472 197.317 74.0942 205.156 79.8739 210.936C85.6535 216.716 93.4925 219.963 101.666 219.963H331.341C339.515 219.963 347.354 216.716 353.134 210.936C358.913 205.156 362.16 197.317 362.16 189.144C362.16 180.97 358.913 173.131 353.134 167.351C347.354 161.572 339.515 158.325 331.341 158.325H101.666Z" fill="#E5E5E5"/>
<path d="M101.666 164.562C95.1466 164.562 88.8941 167.152 84.2841 171.762C79.6741 176.372 77.0842 182.624 77.0842 189.144C77.0842 195.663 79.6741 201.916 84.2841 206.526C88.8941 211.136 95.1466 213.726 101.666 213.726H331.341C337.861 213.726 344.113 211.136 348.723 206.526C353.333 201.916 355.923 195.663 355.923 189.144C355.923 182.624 353.333 176.372 348.723 171.762C344.113 167.152 337.861 164.562 331.341 164.562H101.666Z" fill="white"/>
<path d="M152.399 203.842H106.702C106.557 203.843 106.413 203.816 106.278 203.761C106.144 203.706 106.022 203.625 105.919 203.523C105.816 203.42 105.734 203.299 105.678 203.165C105.622 203.031 105.594 202.887 105.594 202.742C105.594 202.597 105.622 202.453 105.678 202.319C105.734 202.185 105.816 202.063 105.919 201.961C106.022 201.859 106.144 201.778 106.278 201.723C106.413 201.668 106.557 201.64 106.702 201.641H152.399C152.689 201.643 152.967 201.76 153.172 201.966C153.377 202.172 153.492 202.451 153.492 202.742C153.492 203.032 153.377 203.311 153.172 203.517C152.967 203.724 152.689 203.841 152.399 203.842Z" fill="#6C63FF"/>
<path d="M210.368 204.209H164.671C164.526 204.21 164.382 204.182 164.248 204.128C164.113 204.073 163.991 203.992 163.888 203.889C163.785 203.787 163.703 203.666 163.647 203.531C163.592 203.397 163.563 203.254 163.563 203.109C163.563 202.963 163.592 202.82 163.647 202.686C163.703 202.552 163.785 202.43 163.888 202.328C163.991 202.225 164.113 202.144 164.248 202.089C164.382 202.035 164.526 202.007 164.671 202.008H210.368C210.513 202.007 210.657 202.035 210.792 202.089C210.926 202.144 211.048 202.225 211.151 202.328C211.254 202.43 211.336 202.552 211.392 202.686C211.448 202.82 211.476 202.963 211.476 203.109C211.476 203.254 211.448 203.397 211.392 203.531C211.336 203.666 211.254 203.787 211.151 203.889C211.048 203.992 210.926 204.073 210.792 204.128C210.657 204.182 210.513 204.21 210.368 204.209Z" fill="#6C63FF"/>
<path d="M268.337 204.576H222.64C222.349 204.574 222.071 204.458 221.866 204.251C221.662 204.045 221.547 203.766 221.547 203.476C221.547 203.185 221.662 202.906 221.866 202.7C222.071 202.494 222.349 202.377 222.64 202.375H268.337C268.482 202.374 268.626 202.402 268.76 202.457C268.895 202.512 269.017 202.592 269.12 202.695C269.223 202.797 269.305 202.919 269.36 203.053C269.416 203.187 269.445 203.331 269.445 203.476C269.445 203.621 269.416 203.765 269.36 203.899C269.305 204.033 269.223 204.154 269.12 204.257C269.017 204.359 268.895 204.44 268.76 204.495C268.626 204.55 268.482 204.577 268.337 204.576Z" fill="#6C63FF"/>
<path d="M326.306 204.943H280.609C280.318 204.941 280.04 204.824 279.836 204.618C279.631 204.412 279.516 204.133 279.516 203.842C279.516 203.552 279.631 203.273 279.836 203.067C280.04 202.861 280.318 202.744 280.609 202.742H326.306C326.597 202.744 326.875 202.861 327.079 203.067C327.284 203.273 327.399 203.552 327.399 203.842C327.399 204.133 327.284 204.412 327.079 204.618C326.875 204.824 326.597 204.941 326.306 204.943Z" fill="#6C63FF"/>
<path d="M129.45 193.713C134.14 193.713 137.943 189.91 137.943 185.22C137.943 180.529 134.14 176.727 129.45 176.727C124.759 176.727 120.957 180.529 120.957 185.22C120.957 189.91 124.759 193.713 129.45 193.713Z" fill="#6C63FF"/>
<path d="M187.769 193.713C192.459 193.713 196.262 189.91 196.262 185.22C196.262 180.529 192.459 176.727 187.769 176.727C183.078 176.727 179.276 180.529 179.276 185.22C179.276 189.91 183.078 193.713 187.769 193.713Z" fill="#6C63FF"/>
<path d="M246.088 193.713C250.779 193.713 254.581 189.91 254.581 185.22C254.581 180.529 250.779 176.727 246.088 176.727C241.397 176.727 237.595 180.529 237.595 185.22C237.595 189.91 241.397 193.713 246.088 193.713Z" fill="#6C63FF"/>
<path d="M304.407 193.713C309.098 193.713 312.901 189.91 312.901 185.22C312.901 180.529 309.098 176.727 304.407 176.727C299.717 176.727 295.914 180.529 295.914 185.22C295.914 189.91 299.717 193.713 304.407 193.713Z" fill="#6C63FF"/>
<path d="M402.489 311.267H30.947V65.4314C30.9495 63.2702 31.8091 61.1982 33.3373 59.6701C34.8655 58.1419 36.9375 57.2822 39.0986 57.2798H394.338C396.499 57.2822 398.571 58.1419 400.099 59.6701C401.627 61.1982 402.487 63.2702 402.489 65.4314V311.267ZM32.6632 309.551H400.773V65.4314C400.771 63.7252 400.093 62.0894 398.886 60.8829C397.68 59.6764 396.044 58.9978 394.338 58.9959H39.0986C37.3924 58.9978 35.7566 59.6764 34.5501 60.8829C33.3436 62.0894 32.665 63.7252 32.6632 65.4314V309.551Z" fill="#CCCCCC"/>
<path d="M216.718 71.4378C218.614 71.4378 220.15 69.9011 220.15 68.0055C220.15 66.1099 218.614 64.5732 216.718 64.5732C214.823 64.5732 213.286 66.1099 213.286 68.0055C213.286 69.9011 214.823 71.4378 216.718 71.4378Z" fill="#E6E6E6"/>
<path d="M569.201 322.056L558.683 321.879L554.359 281.225L569.883 281.486L569.201 322.056Z" fill="#FFB8B8"/>
<path d="M551.221 318.748L571.506 319.089L571.291 331.861L538.234 331.305C538.262 329.628 538.621 327.973 539.288 326.434C539.956 324.895 540.921 323.503 542.127 322.337C543.333 321.171 544.756 320.254 546.317 319.638C547.877 319.022 549.544 318.72 551.221 318.748Z" fill="#2F2E41"/>
<path d="M464.82 321.96L455.069 318.013L465.653 278.523L480.045 284.349L464.82 321.96Z" fill="#FFB8B8"/>
<path d="M449.231 312.407L468.037 320.02L463.244 331.86L432.598 319.455C433.869 316.315 436.336 313.808 439.455 312.486C442.574 311.164 446.091 311.136 449.231 312.407Z" fill="#2F2E41"/>
<path d="M499.978 169.833L469.088 251.35L456.217 307.982L469.946 314.846L532.585 193.001L555.752 315.275H569.481C569.481 315.275 575.759 170.25 566.614 158.887L499.978 169.833Z" fill="#2F2E41"/>
<path d="M514.994 56.9976C530.633 56.9976 543.31 44.32 543.31 28.6814C543.31 13.0428 530.633 0.365234 514.994 0.365234C499.356 0.365234 486.678 13.0428 486.678 28.6814C486.678 44.32 499.356 56.9976 514.994 56.9976Z" fill="#2F2E41"/>
<path d="M475.477 221.367C476.683 220.767 477.744 219.909 478.583 218.855C479.422 217.801 480.02 216.575 480.334 215.264C480.648 213.954 480.671 212.591 480.402 211.27C480.132 209.95 479.576 208.705 478.773 207.622L500.253 88.7461L480.209 88.4819L465.292 206.035C463.563 207.505 462.434 209.557 462.117 211.804C461.8 214.05 462.319 216.335 463.574 218.225C464.83 220.115 466.735 221.479 468.929 222.058C471.122 222.637 473.452 222.391 475.477 221.367Z" fill="#FFB8B8"/>
<path d="M598.566 198.148C599.323 196.995 599.811 195.686 599.995 194.319C600.179 192.951 600.053 191.56 599.628 190.247C599.203 188.935 598.488 187.734 597.537 186.734C596.586 185.735 595.423 184.961 594.133 184.471L555.776 91.3023C554.838 89.0222 553.413 86.9739 551.603 85.3001C549.792 83.6262 547.639 82.3669 545.292 81.6099C542.945 80.8528 540.462 80.6161 538.014 80.9163C535.567 81.2164 533.214 82.0462 531.12 83.3479L581.922 190.401C581.268 192.539 581.408 194.842 582.318 196.885C583.228 198.928 584.846 200.573 586.873 201.516C588.9 202.46 591.201 202.639 593.349 202.02C595.498 201.401 597.351 200.026 598.566 198.148Z" fill="#FFB8B8"/>
<path d="M515.555 60.4249C527.194 60.4249 536.63 50.9893 536.63 39.3499C536.63 27.7105 527.194 18.2749 515.555 18.2749C503.916 18.2749 494.48 27.7105 494.48 39.3499C494.48 50.9893 503.916 60.4249 515.555 60.4249Z" fill="#FFB8B8"/>
<path d="M489.928 72.6721C502.084 67.6116 523.07 62.6102 546.372 73.5109C549.099 74.7822 551.527 76.6157 553.495 78.8912C555.464 81.1667 556.929 83.8326 557.794 86.7142L567.765 120.065L554.894 132.936L566.907 159.536C566.907 159.536 521.001 187.424 500.407 170.262L487.965 126.072L471.662 121.782L477.224 88.7367C477.811 85.2033 479.284 81.8764 481.506 79.067C483.727 76.2576 486.625 74.0574 489.928 72.6721Z" fill="#6C63FF"/>
<path d="M495.844 23.7646C504.074 28.7889 513.353 31.8462 522.958 32.6987L520.1 29.2742C522.181 30.0436 524.371 30.4785 526.588 30.5625C527.698 30.5947 528.8 30.3662 529.806 29.8955C530.812 29.4247 531.693 28.7247 532.379 27.8517C532.94 26.9452 533.273 25.9165 533.35 24.8535C533.427 23.7904 533.246 22.7245 532.822 21.7466C531.951 19.7962 530.595 18.101 528.884 16.8226C525.85 14.4231 522.271 12.8113 518.463 12.1308C514.656 11.4504 510.739 11.7224 507.063 12.9227C504.541 13.6765 502.282 15.1254 500.545 17.1034C499.692 18.0998 499.099 19.2926 498.82 20.5747C498.541 21.8568 498.584 23.1882 498.947 24.4492" fill="#2F2E41"/>
<path d="M491.902 5.01194C491.559 1.40806 487.144 -0.810626 483.692 0.277993C480.239 1.36661 477.972 4.843 477.287 8.3977C476.958 9.89474 476.927 11.4421 477.196 12.9512C477.466 14.4602 478.03 15.9012 478.858 17.1915C479.714 18.4655 480.917 19.467 482.325 20.0771C483.733 20.6872 485.287 20.8801 486.801 20.633C490.216 19.9051 492.582 16.5709 493.259 13.1459C493.935 9.72079 493.263 6.18957 492.592 2.76337" fill="#2F2E41"/>
<path d="M550.25 6.72825C549.908 3.12437 545.493 0.905682 542.04 1.9943C538.588 3.08292 536.321 6.5593 535.636 10.114C535.306 11.611 535.275 13.1584 535.545 14.6675C535.814 16.1765 536.379 17.6175 537.206 18.9078C538.062 20.1818 539.265 21.1834 540.673 21.7934C542.082 22.4035 543.635 22.5964 545.15 22.3493C548.564 21.6214 550.93 18.2872 551.607 14.8622C552.284 11.4371 551.612 7.90588 550.941 4.47968" fill="#2F2E41"/>
<path d="M408.925 300.112H393.909V297.538C393.909 296.627 393.547 295.754 392.903 295.111C392.26 294.467 391.387 294.105 390.477 294.105H372.457C371.547 294.105 370.674 294.467 370.03 295.111C369.386 295.754 369.025 296.627 369.025 297.538V300.112H366.451V297.538C366.451 296.627 366.089 295.754 365.445 295.111C364.802 294.467 363.929 294.105 363.018 294.105H344.999C344.089 294.105 343.216 294.467 342.572 295.111C341.928 295.754 341.567 296.627 341.567 297.538V300.112H338.993V297.538C338.993 296.627 338.631 295.754 337.987 295.111C337.344 294.467 336.471 294.105 335.56 294.105H317.541C316.631 294.105 315.758 294.467 315.114 295.111C314.47 295.754 314.109 296.627 314.109 297.538V300.112H311.534V297.538C311.534 296.627 311.173 295.754 310.529 295.111C309.885 294.467 309.012 294.105 308.102 294.105H290.083C289.173 294.105 288.299 294.467 287.656 295.111C287.012 295.754 286.651 296.627 286.651 297.538V300.112H284.076V297.538C284.076 296.627 283.715 295.754 283.071 295.111C282.427 294.467 281.554 294.105 280.644 294.105H262.625C261.714 294.105 260.841 294.467 260.198 295.111C259.554 295.754 259.192 296.627 259.192 297.538V300.112H256.618V297.538C256.618 296.627 256.257 295.754 255.613 295.111C254.969 294.467 254.096 294.105 253.186 294.105H235.167C234.256 294.105 233.383 294.467 232.74 295.111C232.096 295.754 231.734 296.627 231.734 297.538V300.112H229.16V297.538C229.16 296.627 228.799 295.754 228.155 295.111C227.511 294.467 226.638 294.105 225.728 294.105H207.709C206.798 294.105 205.925 294.467 205.282 295.111C204.638 295.754 204.276 296.627 204.276 297.538V300.112H201.702V297.538C201.702 296.627 201.34 295.754 200.697 295.111C200.053 294.467 199.18 294.105 198.27 294.105H180.25C179.34 294.105 178.467 294.467 177.823 295.111C177.18 295.754 176.818 296.627 176.818 297.538V300.112H174.244V297.538C174.244 296.627 173.882 295.754 173.239 295.111C172.595 294.467 171.722 294.105 170.812 294.105H152.792C151.882 294.105 151.009 294.467 150.365 295.111C149.722 295.754 149.36 296.627 149.36 297.538V300.112H146.786V297.538C146.786 296.627 146.424 295.754 145.781 295.111C145.137 294.467 144.264 294.105 143.354 294.105H125.334C124.424 294.105 123.551 294.467 122.907 295.111C122.264 295.754 121.902 296.627 121.902 297.538V300.112H119.328V297.538C119.328 296.627 118.966 295.754 118.322 295.111C117.679 294.467 116.806 294.105 115.896 294.105H97.8761C96.9658 294.105 96.0928 294.467 95.4491 295.111C94.8055 295.754 94.4439 296.627 94.4439 297.538V300.112H91.8697V297.538C91.8697 296.627 91.508 295.754 90.8644 295.111C90.2207 294.467 89.3477 294.105 88.4374 294.105H70.418C69.5077 294.105 68.6347 294.467 67.991 295.111C67.3474 295.754 66.9858 296.627 66.9858 297.538V300.112H64.4116V297.538C64.4116 296.627 64.0499 295.754 63.4063 295.111C62.7626 294.467 61.8896 294.105 60.9793 294.105H42.9599C42.0496 294.105 41.1766 294.467 40.5329 295.111C39.8893 295.754 39.5277 296.627 39.5277 297.538V300.112H24.5115C18.0256 300.112 11.8055 302.688 7.21929 307.275C2.63313 311.861 0.0566406 318.081 0.0566406 324.567C0.0566406 326.501 0.825068 328.356 2.19288 329.724C3.56068 331.092 5.41583 331.86 7.3502 331.86H426.086C428.021 331.86 429.876 331.092 431.244 329.724C432.611 328.356 433.38 326.501 433.38 324.567C433.38 318.081 430.803 311.861 426.217 307.275C421.631 302.688 415.411 300.112 408.925 300.112Z" fill="#3F3D56"/>
<path d="M445.471 94.329C441.37 96.0413 437.092 94.1648 435.297 89.8674C433.475 85.5044 435.177 81.0753 439.343 79.3356C443.51 77.5958 447.713 79.4768 449.564 83.9103C451.387 88.2772 449.704 92.5614 445.471 94.329ZM437.616 70.7477L434.356 72.1091C433.541 72.4452 432.63 72.4633 431.803 72.1599C430.976 71.8565 430.293 71.2537 429.889 70.4707L429.727 70.1552C426.219 63.8284 425.817 56.139 428.54 47.3127C431.062 39.3951 432.109 33.8267 430.003 28.7819C427.567 22.9493 422.366 21.1222 415.734 23.769C413.162 24.843 412.344 24.8259 410.319 26.834C409.879 27.2761 409.354 27.625 408.776 27.8599C408.198 28.0948 407.579 28.2109 406.955 28.2013C406.352 28.1941 405.756 28.0657 405.204 27.8235C404.651 27.5812 404.153 27.2303 403.739 26.7914C402.942 25.9458 402.495 24.8291 402.49 23.6669C402.484 22.5047 402.919 21.3835 403.708 20.5299C407.11 16.9682 411.214 14.1505 415.76 12.2546C430.009 6.30449 437.183 15.0889 440.465 22.9502C443.676 30.6394 441.87 37.7736 438.968 47.0133C436.536 54.6908 436.678 60.3798 439.44 66.0364C439.64 66.464 439.751 66.9275 439.766 67.3991C439.782 67.8707 439.703 68.3407 439.532 68.7807C439.362 69.2207 439.104 69.6218 438.775 69.9598C438.446 70.2978 438.052 70.5658 437.616 70.7477Z" fill="#FF6584"/>
<path d="M0.0566448 331.214C0.0559025 331.44 0.154434 331.658 0.330552 331.819C0.50667 331.98 0.745949 332.071 0.995762 332.072H568.867C569.118 332.072 569.358 331.981 569.536 331.82C569.713 331.659 569.812 331.441 569.812 331.214C569.812 330.986 569.713 330.768 569.536 330.607C569.358 330.446 569.118 330.355 568.867 330.355H1.00141C0.877707 330.355 0.755152 330.377 0.640728 330.42C0.526304 330.462 0.422253 330.525 0.334525 330.604C0.246798 330.683 0.177112 330.778 0.129437 330.881C0.0817628 330.985 0.0570323 331.096 0.056669 331.209L0.0566448 331.214Z" fill="#CCCCCC"/>
</g>
<defs>
<clipPath id="clip0_1_5420">
<rect width="600" height="331.861" fill="white" transform="translate(0.0566406)"/>
</clipPath>
</defs>
</svg>
