<svg width="601" height="441" viewBox="0 0 601 441" fill="none" xmlns="http://www.w3.org/2000/svg">
<g clip-path="url(#clip0_1_5284)">
<path d="M159.428 325.544C71.5501 325.544 0.0566406 254.05 0.0566406 166.172C0.0566406 78.2943 71.5501 6.80078 159.428 6.80078C184.962 6.82701 210.118 12.9746 232.785 24.7282C255.453 36.4817 274.973 53.4986 289.708 74.3521L288.2 75.4174C273.636 54.805 254.342 37.9847 231.937 26.367C209.531 14.7492 184.667 8.67261 159.428 8.64661C72.5686 8.64661 1.90247 79.3127 1.90247 166.172C1.90247 253.032 72.5686 323.698 159.428 323.698C183.624 323.777 207.509 318.245 229.207 307.536C250.905 296.827 269.824 281.234 284.48 261.981L285.943 263.104C271.117 282.583 251.976 298.359 230.024 309.193C208.072 320.027 183.908 325.624 159.428 325.544Z" fill="#E6E6E6"/>
<path d="M181.38 35.1608C191.09 35.1608 198.961 27.2898 198.961 17.5804C198.961 7.87101 191.09 0 181.38 0C171.671 0 163.8 7.87101 163.8 17.5804C163.8 27.2898 171.671 35.1608 181.38 35.1608Z" fill="#E6E6E6"/>
<path d="M202.906 49.2969H160.63C158.046 49.2969 155.951 51.3916 155.951 53.9756V55.6594C155.951 58.2434 158.046 60.3382 160.63 60.3382H202.906C205.49 60.3382 207.585 58.2434 207.585 55.6594V53.9756C207.585 51.3916 205.49 49.2969 202.906 49.2969Z" fill="#E6E6E6"/>
<path d="M229.129 71.3799H134.407C131.823 71.3799 129.728 73.4746 129.728 76.0586V77.7424C129.728 80.3264 131.823 82.4212 134.407 82.4212H229.129C231.713 82.4212 233.808 80.3264 233.808 77.7424V76.0586C233.808 73.4746 231.713 71.3799 229.129 71.3799Z" fill="#E6E6E6"/>
<path d="M229.129 93.4624H134.407C131.823 93.4624 129.728 95.5571 129.728 98.1411V99.825C129.728 102.409 131.823 104.504 134.407 104.504H229.129C231.713 104.504 233.808 102.409 233.808 99.825V98.1411C233.808 95.5571 231.713 93.4624 229.129 93.4624Z" fill="#E6E6E6"/>
<path d="M127.58 224.587C137.289 224.587 145.16 216.716 145.16 207.007C145.16 197.297 137.289 189.426 127.58 189.426C117.871 189.426 110 197.297 110 207.007C110 216.716 117.871 224.587 127.58 224.587Z" fill="#E6E6E6"/>
<path d="M149.106 238.723H106.83C104.246 238.723 102.151 240.818 102.151 243.402V245.086C102.151 247.67 104.246 249.764 106.83 249.764H149.106C151.69 249.764 153.785 247.67 153.785 245.086V243.402C153.785 240.818 151.69 238.723 149.106 238.723Z" fill="#E6E6E6"/>
<path d="M175.329 260.806H80.607C78.023 260.806 75.9282 262.9 75.9282 265.484V267.168C75.9282 269.752 78.023 271.847 80.607 271.847H175.329C177.913 271.847 180.008 269.752 180.008 267.168V265.484C180.008 262.9 177.913 260.806 175.329 260.806Z" fill="#E6E6E6"/>
<path d="M175.329 282.888H80.607C78.023 282.888 75.9282 284.983 75.9282 287.567V289.251C75.9282 291.835 78.023 293.929 80.607 293.929H175.329C177.913 293.929 180.008 291.835 180.008 289.251V287.567C180.008 284.983 177.913 282.888 175.329 282.888Z" fill="#E6E6E6"/>
<path d="M301.111 147.158C314.519 147.158 325.388 136.289 325.388 122.881C325.388 109.473 314.519 98.604 301.111 98.604C287.704 98.604 276.834 109.473 276.834 122.881C276.834 136.289 287.704 147.158 301.111 147.158Z" fill="#6C63FF"/>
<path d="M297.799 135.516C297.38 135.516 296.967 135.419 296.592 135.231C296.217 135.043 295.891 134.771 295.639 134.436L289.016 125.605C288.803 125.321 288.649 124.998 288.561 124.655C288.473 124.311 288.453 123.954 288.503 123.603C288.553 123.252 288.672 122.914 288.853 122.609C289.034 122.304 289.273 122.037 289.556 121.824C289.84 121.611 290.163 121.457 290.506 121.369C290.85 121.281 291.207 121.261 291.558 121.311C291.91 121.362 292.247 121.48 292.552 121.661C292.858 121.842 293.124 122.081 293.337 122.364L297.67 128.141L308.799 111.448C308.995 111.153 309.248 110.9 309.543 110.702C309.838 110.505 310.168 110.367 310.516 110.298C310.864 110.228 311.222 110.228 311.57 110.296C311.918 110.365 312.249 110.502 312.544 110.699C312.839 110.895 313.093 111.148 313.29 111.443C313.487 111.738 313.625 112.069 313.694 112.416C313.764 112.764 313.764 113.122 313.695 113.47C313.626 113.818 313.49 114.149 313.293 114.444L300.047 134.314C299.807 134.673 299.485 134.97 299.107 135.179C298.729 135.388 298.306 135.503 297.875 135.515C297.849 135.516 297.824 135.516 297.799 135.516Z" fill="white"/>
<path d="M332.619 166.679H270.675C268.091 166.679 265.996 168.773 265.996 171.357V177.247C265.996 179.831 268.091 181.926 270.675 181.926H332.619C335.203 181.926 337.297 179.831 337.297 177.247V171.357C337.297 168.773 335.203 166.679 332.619 166.679Z" fill="#3F3D56"/>
<path d="M368.83 197.173H234.463C231.879 197.173 229.785 199.268 229.785 201.852V207.741C229.785 210.325 231.879 212.42 234.463 212.42H368.83C371.414 212.42 373.509 210.325 373.509 207.741V201.852C373.509 199.268 371.414 197.173 368.83 197.173Z" fill="#3F3D56"/>
<path d="M368.83 227.667H234.463C231.879 227.667 229.785 229.761 229.785 232.345V238.235C229.785 240.819 231.879 242.913 234.463 242.913H368.83C371.414 242.913 373.509 240.819 373.509 238.235V232.345C373.509 229.761 371.414 227.667 368.83 227.667Z" fill="#3F3D56"/>
<path d="M415.993 427.898L404.22 427.897L398.619 382.487L415.995 382.488L415.993 427.898Z" fill="#FFB6B6"/>
<path d="M415.678 424.053L403.108 418.94L402.748 418.792L395.808 424.053C391.89 424.053 388.132 425.61 385.361 428.381C382.59 431.152 381.033 434.91 381.032 438.828V439.308H418.992V424.053H415.678Z" fill="#2F2E41"/>
<path d="M515.501 418.036L504.258 421.53L485.433 379.827L502.027 374.671L515.501 418.036Z" fill="#FFB6B6"/>
<path d="M514.06 414.458L500.539 413.306L500.151 413.271L495.085 420.355C491.343 421.518 488.216 424.12 486.392 427.589C484.569 431.057 484.197 435.108 485.359 438.85L485.502 439.308L521.751 428.043L517.224 413.474L514.06 414.458Z" fill="#2F2E41"/>
<path d="M468.396 195.276L473.184 208.894V216.255L472.517 224.351L479.928 251.349L485.742 310.885L514.999 399.016L492.565 405.476L435.29 261.479L417.199 407.127L396.684 406.58C396.684 406.58 393.174 398.093 394.097 393.478C395.02 388.864 395.02 394.401 395.02 388.864C395.02 383.326 391.019 385.731 393.942 381.298C396.866 376.866 396.502 372.985 396.684 370.311C396.866 367.636 395.02 259.655 395.02 255.964C395.02 252.272 394.38 253.081 394.7 249.446C395.02 245.811 399.076 247.306 397.971 241.021C396.866 234.737 396.502 235.835 396.684 231.133C396.866 226.43 399.409 198.858 399.409 198.858L468.396 195.276Z" fill="#2F2E41"/>
<path d="M391.615 199.706L432.742 160.044L444.141 127.768L427.327 120.457C418.691 128.73 409.355 154.497 409.355 154.497L381.054 190.503C380.833 190.579 380.613 190.659 380.396 190.755C379.122 191.317 378.013 192.198 377.179 193.314C376.344 194.429 375.812 195.741 375.632 197.123C375.453 198.504 375.633 199.909 376.155 201.201C376.677 202.492 377.524 203.627 378.613 204.496C379.702 205.365 380.996 205.938 382.372 206.161C383.747 206.383 385.156 206.247 386.464 205.765C387.771 205.284 388.932 204.473 389.834 203.411C390.737 202.35 391.35 201.074 391.615 199.706Z" fill="#FFB8B8"/>
<path d="M422.596 124.06L443.924 130.831L444.004 130.817C451.942 129.488 458.529 116.523 462.656 105.881C464.015 102.371 463.989 98.4759 462.586 94.9837C461.182 91.4915 458.505 88.6625 455.095 87.0687C452.572 85.9099 449.775 85.48 447.02 85.8275C444.266 86.1751 441.663 87.2862 439.507 89.0354L428.555 97.9843L422.596 124.06Z" fill="#6C63FF"/>
<path d="M472.019 212.771L472.144 212.605C478.798 203.78 469.697 181.925 468.321 178.756L474.508 176.923L473.43 165.142L472.91 159.889L477.721 155.321L477.737 155.204L481.046 131.66L485.374 116.077C487.006 110.186 487.04 103.967 485.474 98.0579C483.908 92.1491 480.798 86.7635 476.462 82.454L467.613 73.6679L457.011 57.0732L439.235 56.6143L432.843 67.9695C426.899 69.1826 421.568 72.4428 417.78 77.1819C413.992 81.9211 411.987 87.8389 412.114 93.9045L412.716 124.134L406.337 161.589L406.158 168.392L399.898 174.999L401.055 181.677L396.373 183.543L394.081 193.033C393.206 194.128 387.427 201.432 387.375 203.469C387.367 203.774 387.585 204.076 388.061 204.416C391.801 207.092 412.707 212.891 422.116 209.405C432.139 205.695 471.419 212.663 471.815 212.734L472.019 212.771Z" fill="#6C63FF"/>
<path d="M428.444 116.94L419.364 98.8369C406.184 99.7372 380.026 114.976 380.026 114.976L330.533 125.47C329.067 124.906 327.478 124.739 325.927 124.984C324.375 125.23 322.916 125.88 321.695 126.869C320.475 127.858 319.537 129.151 318.975 130.618C318.413 132.084 318.247 133.673 318.495 135.224C318.742 136.776 319.394 138.234 320.385 139.453C321.375 140.673 322.669 141.609 324.137 142.169C325.604 142.73 327.193 142.893 328.744 142.644C330.295 142.394 331.753 141.741 332.971 140.749L395.928 136.236L428.444 116.94Z" fill="#FFB8B8"/>
<path d="M424.782 119.913L448.496 102.29L452.673 87.2362C453.482 84.2779 453.448 81.1523 452.574 78.2125C451.7 75.2727 450.022 72.6359 447.728 70.6001C444.6 67.8614 440.549 66.4126 436.393 66.5466C432.238 66.6807 428.289 68.3876 425.344 71.3223C416.42 80.2298 406.241 92.6565 408.428 101.274L408.45 101.361L424.782 119.913Z" fill="#6C63FF"/>
<path d="M448.709 52.4991C460.355 52.4991 469.796 43.058 469.796 31.4117C469.796 19.7654 460.355 10.3242 448.709 10.3242C437.062 10.3242 427.621 19.7654 427.621 31.4117C427.621 43.058 437.062 52.4991 448.709 52.4991Z" fill="#FFB8B8"/>
<path d="M597.805 441.826L-1.69114 442.397C-2.28948 442.395 -2.86229 442.16 -3.28432 441.745C-3.70635 441.33 -3.94336 440.769 -3.94336 440.183C-3.94336 439.598 -3.70635 439.036 -3.28432 438.621C-2.86229 438.207 -2.28948 437.972 -1.69114 437.969L597.805 437.397C598.403 437.4 598.976 437.635 599.398 438.05C599.82 438.465 600.057 439.026 600.057 439.612C600.057 440.197 599.82 440.759 599.398 441.174C598.976 441.588 598.403 441.823 597.805 441.826Z" fill="#CACACA"/>
</g>
<defs>
<clipPath id="clip0_1_5284">
<rect width="600" height="440.795" fill="white" transform="translate(0.0566406)"/>
</clipPath>
</defs>
</svg>
