<svg width="41" height="40" viewBox="0 0 41 40" fill="none" xmlns="http://www.w3.org/2000/svg">
<path d="M33.6117 27.364C31.1638 29.4997 29.2054 34.127 29.2054 34.127C29.2054 34.127 26.1343 29.0547 23.4638 27.3195C19.2355 24.6053 17.4106 24.5609 17.4106 24.5609V26.6966C17.4106 26.6966 20.8823 27.2305 22.6181 28.7433C26.2678 31.9023 29.2054 36.9746 29.2054 36.9746C29.2054 36.9746 31.8314 31.1459 34.3684 29.1437C37.9291 26.3851 41.0002 26.6966 41.0002 26.6966V24.5609C41.0002 24.5164 36.5938 24.7833 33.6117 27.364Z" fill="#00939F"/>
<path d="M17.412 33.3703C14.5635 31.7686 9.48951 31.4571 9.48951 31.4571C9.48951 31.4571 13.3617 26.9632 14.1629 23.8931C15.4091 19.0878 14.8305 17.3525 14.8305 17.3525L12.7831 18.0644C12.7831 18.0644 13.3617 21.4905 12.5161 23.5817C10.6912 27.9866 6.72998 32.3915 6.72998 32.3915C6.72998 32.3915 13.2282 32.9699 15.9432 34.6607C19.771 37.0633 20.4831 39.9999 20.4831 39.9999L22.5305 39.288C22.5305 39.3325 20.8392 35.3281 17.412 33.3703Z" fill="#00939F"/>
<path d="M14.4294 14.1492C19.4589 13.7488 20.9277 12.6364 20.9277 12.6364L19.5924 10.9457C19.5924 10.9457 16.5213 12.5919 14.2069 12.4585C9.35547 12.1915 3.83641 9.9668 3.83641 9.9668C3.83641 9.9668 5.39421 16.1959 4.63757 19.266C3.56936 23.6709 0.943359 25.2727 0.943359 25.2727L2.27861 26.9635C2.27861 26.9635 5.61675 24.0714 6.32889 20.2449C6.9075 17.0858 5.57224 12.236 5.57224 12.236C5.57224 12.236 11.1803 14.4162 14.4294 14.1492Z" fill="#00939F"/>
<path d="M15.3637 5.69522C18.6128 5.20578 22.7966 2.40267 22.7966 2.40267C22.7966 2.40267 22.5296 8.27586 23.8648 11.2125C25.9122 15.7508 27.4255 16.7742 27.4255 16.7742L28.6272 14.9944C28.6272 14.9944 26.0012 12.6808 25.3781 10.4561C24.0429 5.87319 24.3989 0 24.3989 0C24.3989 0 18.9244 3.47052 15.7198 3.78198C11.1799 4.22692 8.77644 2.31368 8.77644 2.31368L7.57471 4.13793C7.57471 4.09344 11.4469 6.27364 15.3637 5.69522Z" fill="#00939F"/>
<path d="M27.6486 24.6939C27.6486 24.6939 29.0284 21.4904 30.9422 20.2001C34.948 17.4859 40.6896 15.8842 40.6896 15.8842C40.6896 15.8842 35.5711 11.9242 34.2359 9.0321C32.3665 4.98316 33.3902 2.09106 33.3902 2.09106L31.2538 1.55713C31.2538 1.55713 30.4081 5.82854 32.233 9.29906C33.7463 12.1467 37.7966 15.1723 37.7966 15.1723C37.7966 15.1723 32.0995 16.863 29.696 19.0432C26.0018 22.4248 25.5122 24.16 25.5122 24.16L27.6486 24.6939Z" fill="#00939F"/>
</svg>
