<svg width="454" height="450" viewBox="0 0 454 450" fill="none" xmlns="http://www.w3.org/2000/svg">
<g clip-path="url(#clip0_1_4365)">
<path d="M299.169 119.222H224.953C223.328 119.227 221.724 118.861 220.262 118.152C218.799 117.444 217.518 116.411 216.515 115.133C215.494 113.842 214.781 112.336 214.43 110.728C214.079 109.121 214.099 107.454 214.49 105.855C221.33 77.2052 221.33 47.3471 214.489 18.6969C214.099 17.0984 214.079 15.432 214.43 13.8244C214.781 12.2169 215.494 10.7107 216.515 9.42025C217.518 8.14183 218.799 7.10902 220.261 6.40043C221.724 5.69183 223.328 5.3261 224.953 5.33111H299.169C301.732 5.33847 304.208 6.25516 306.158 7.91789C308.108 9.58063 309.404 11.8814 309.816 14.4106C314.7 46.1342 314.7 78.4186 309.816 110.142C309.404 112.671 308.108 114.972 306.158 116.635C304.208 118.298 301.732 119.214 299.169 119.222Z" fill="#E6E6E6"/>
<path d="M224.953 10.9153C224.173 10.9127 223.402 11.0881 222.7 11.4281C221.997 11.7682 221.382 12.2639 220.9 12.8776C220.404 13.5064 220.058 14.2401 219.888 15.0229C219.718 15.8057 219.729 16.6169 219.919 17.3949C226.964 46.9012 226.964 77.6515 219.92 107.158C219.729 107.936 219.718 108.747 219.888 109.529C220.058 110.312 220.404 111.045 220.9 111.674C221.382 112.288 221.997 112.784 222.7 113.124C223.402 113.465 224.173 113.64 224.953 113.637H299.169C300.4 113.638 301.591 113.201 302.53 112.406C303.468 111.611 304.095 110.508 304.296 109.294C309.094 78.1324 309.094 46.4203 304.296 15.2589C304.095 14.045 303.468 12.9421 302.53 12.1467C301.591 11.3513 300.4 10.9149 299.169 10.9153L224.953 10.9153Z" fill="white"/>
<path d="M282.974 37.7671H244.028C242.548 37.7655 241.128 37.1766 240.081 36.1297C239.034 35.0829 238.446 33.6635 238.444 32.183V30.0008C238.446 28.5203 239.034 27.1009 240.081 26.0541C241.128 25.0072 242.548 24.4184 244.028 24.4167H282.974C284.454 24.4184 285.874 25.0072 286.92 26.0541C287.967 27.1009 288.556 28.5203 288.558 30.0008V32.183C288.556 33.6635 287.967 35.0829 286.92 36.1298C285.874 37.1766 284.454 37.7655 282.974 37.7671Z" fill="#E6E6E6"/>
<path d="M282.974 65.3403H244.028C242.548 65.3387 241.128 64.7498 240.081 63.703C239.034 62.6561 238.446 61.2367 238.444 59.7562V57.574C238.446 56.0936 239.034 54.6742 240.081 53.6273C241.128 52.5804 242.548 51.9916 244.028 51.99H282.974C284.454 51.9916 285.874 52.5804 286.92 53.6273C287.967 54.6742 288.556 56.0936 288.558 57.574V59.7562C288.556 61.2367 287.967 62.6561 286.92 63.703C285.874 64.7498 284.454 65.3387 282.974 65.3403Z" fill="#E6E6E6"/>
<path d="M282.974 92.9133H244.028C242.548 92.9117 241.128 92.3228 240.081 91.276C239.034 90.2291 238.446 88.8097 238.444 87.3292V85.147C238.446 83.6666 239.034 82.2472 240.081 81.2003C241.128 80.1534 242.548 79.5646 244.028 79.563H282.974C284.454 79.5646 285.874 80.1534 286.92 81.2003C287.967 82.2472 288.556 83.6666 288.558 85.147V87.3292C288.556 88.8097 287.967 90.2291 286.92 91.276C285.874 92.3228 284.454 92.9117 282.974 92.9133Z" fill="#E6E6E6"/>
<path d="M438.776 189.956H364.56C362.935 189.961 361.331 189.595 359.869 188.886C358.406 188.178 357.125 187.145 356.122 185.867C355.101 184.576 354.388 183.07 354.037 181.462C353.686 179.855 353.706 178.188 354.097 176.59C360.937 147.939 360.937 118.081 354.096 89.4311C353.706 87.8325 353.686 86.1661 354.037 84.5586C354.388 82.9511 355.101 81.4448 356.122 80.1544C357.125 78.876 358.406 77.8432 359.868 77.1346C361.331 76.426 362.935 76.0602 364.56 76.0652H438.776C441.339 76.0726 443.815 76.9893 445.765 78.652C447.715 80.3148 449.011 82.6156 449.423 85.1447C454.307 116.868 454.307 149.153 449.423 180.876C449.011 183.406 447.715 185.706 445.765 187.369C443.815 189.032 441.339 189.949 438.776 189.956Z" fill="#E6E6E6"/>
<path d="M364.56 81.6497C363.78 81.6471 363.009 81.8224 362.307 82.1625C361.604 82.5025 360.989 82.9983 360.507 83.612C360.011 84.2408 359.665 84.9745 359.495 85.7573C359.325 86.5401 359.336 87.3513 359.526 88.1292C366.571 117.636 366.571 148.386 359.527 177.892C359.336 178.67 359.325 179.481 359.495 180.264C359.665 181.046 360.011 181.78 360.507 182.409C360.989 183.022 361.604 183.519 362.307 183.859C363.009 184.199 363.78 184.374 364.56 184.372H438.776C440.007 184.372 441.198 183.936 442.137 183.14C443.076 182.345 443.702 181.242 443.903 180.028C448.701 148.867 448.701 117.155 443.903 85.9933C443.702 84.7794 443.076 83.6765 442.137 82.8811C441.198 82.0856 440.007 81.6492 438.776 81.6497L364.56 81.6497Z" fill="white"/>
<path d="M290.793 270.463H216.576C214.881 270.468 213.207 270.086 211.682 269.347C210.157 268.608 208.82 267.53 207.774 266.196C206.709 264.851 205.965 263.28 205.599 261.604C205.233 259.927 205.254 258.189 205.661 256.523C212.484 227.944 212.484 198.16 205.66 169.581C205.254 167.914 205.233 166.177 205.599 164.5C205.965 162.824 206.709 161.253 207.773 159.908C208.82 158.574 210.156 157.497 211.682 156.757C213.207 156.018 214.881 155.636 216.576 155.641H290.793C293.466 155.649 296.05 156.606 298.084 158.341C300.118 160.076 301.47 162.477 301.899 165.115C306.791 196.886 306.791 229.218 301.899 260.989C301.47 263.628 300.118 266.028 298.084 267.763C296.05 269.498 293.466 270.455 290.793 270.463Z" fill="#F2F2F2"/>
<path d="M422.581 122.462H383.635C382.155 122.46 380.735 121.872 379.688 120.825C378.641 119.778 378.053 118.359 378.051 116.878V114.696C378.053 113.215 378.641 111.796 379.688 110.749C380.735 109.702 382.155 109.113 383.635 109.112H422.581C424.061 109.113 425.481 109.702 426.528 110.749C427.574 111.796 428.163 113.215 428.165 114.696V116.878C428.163 118.359 427.574 119.778 426.528 120.825C425.481 121.872 424.061 122.46 422.581 122.462Z" fill="#E6E6E6"/>
<path d="M422.581 150.035H383.635C382.155 150.033 380.735 149.445 379.688 148.398C378.641 147.351 378.053 145.932 378.051 144.451V142.269C378.053 140.788 378.641 139.369 379.688 138.322C380.735 137.275 382.155 136.686 383.635 136.685H422.581C424.061 136.686 425.481 137.275 426.528 138.322C427.574 139.369 428.163 140.788 428.165 142.269V144.451C428.163 145.932 427.574 147.351 426.528 148.398C425.481 149.445 424.061 150.033 422.581 150.035Z" fill="#E6E6E6"/>
<path d="M253.892 234.075C265.715 234.075 275.299 224.491 275.299 212.668C275.299 200.846 265.715 191.262 253.892 191.262C242.07 191.262 232.486 200.846 232.486 212.668C232.486 224.491 242.07 234.075 253.892 234.075Z" fill="white"/>
<path d="M264.13 209.876H256.684V202.43C256.684 201.69 256.39 200.98 255.867 200.456C255.343 199.932 254.633 199.638 253.892 199.638C253.152 199.638 252.442 199.932 251.918 200.456C251.394 200.98 251.1 201.69 251.1 202.43V209.876H243.654C242.914 209.876 242.204 210.17 241.68 210.694C241.156 211.217 240.862 211.928 240.862 212.668C240.862 213.409 241.156 214.119 241.68 214.643C242.204 215.166 242.914 215.46 243.654 215.46H251.1V222.906C251.1 223.647 251.394 224.357 251.918 224.88C252.442 225.404 253.152 225.698 253.892 225.698C254.633 225.698 255.343 225.404 255.867 224.88C256.39 224.357 256.684 223.647 256.684 222.906V215.46H264.13C264.871 215.46 265.581 215.166 266.105 214.643C266.628 214.119 266.922 213.409 266.922 212.668C266.922 211.928 266.628 211.217 266.105 210.694C265.581 210.17 264.871 209.876 264.13 209.876Z" fill="#E6E6E6"/>
<path d="M280.883 15.8221H241.793C240.683 15.8209 239.618 15.3792 238.833 14.5941C238.048 13.8089 237.606 12.7443 237.605 11.6339V4.18821C237.606 3.07781 238.048 2.01325 238.833 1.22808C239.618 0.442909 240.683 0.0012514 241.793 0H280.883C281.993 0.0012514 283.058 0.442909 283.843 1.22808C284.628 2.01325 285.07 3.07781 285.071 4.18821V11.6339C285.07 12.7443 284.628 13.8089 283.843 14.5941C283.058 15.3792 281.993 15.8209 280.883 15.8221Z" fill="#CCCCCC"/>
<path d="M422.351 87.4872H383.261C382.151 87.4859 381.087 87.0442 380.301 86.2591C379.516 85.4739 379.074 84.4094 379.073 83.299V75.8533C379.074 74.7429 379.516 73.6783 380.301 72.8931C381.087 72.108 382.151 71.6663 383.261 71.665H422.351C423.462 71.6663 424.526 72.108 425.312 72.8931C426.097 73.6783 426.538 74.7429 426.54 75.8533V83.299C426.538 84.4094 426.097 85.4739 425.312 86.2591C424.526 87.0442 423.462 87.4859 422.351 87.4872Z" fill="#CCCCCC"/>
<path d="M83.3716 438.423H94.7822L98.3496 394.411H83.3698L83.3716 438.423Z" fill="#FFB8B8"/>
<path d="M80.4614 434.698L102.932 434.697H102.933C104.814 434.697 106.676 435.067 108.414 435.787C110.151 436.506 111.73 437.561 113.059 438.891C114.389 440.221 115.444 441.799 116.164 443.537C116.883 445.274 117.254 447.136 117.254 449.017V449.482L80.4621 449.484L80.4614 434.698Z" fill="#2F2E41"/>
<path d="M21.9445 438.423H33.355L38.7839 394.411H21.9426L21.9445 438.423Z" fill="#FFB8B8"/>
<path d="M19.0343 434.698L41.5053 434.697H41.5062C43.3868 434.697 45.2489 435.067 46.9864 435.787C48.7238 436.506 50.3025 437.561 51.6323 438.891C52.9621 440.221 54.0169 441.799 54.7365 443.537C55.4562 445.274 55.8266 447.136 55.8266 449.017V449.482L19.035 449.484L19.0343 434.698Z" fill="#2F2E41"/>
<path d="M23.969 424.519C22.805 424.519 21.6837 424.081 20.8278 423.292C20.3684 422.873 19.9983 422.365 19.7399 421.8C19.4815 421.234 19.3401 420.622 19.324 420L14.748 255.996L79.7222 272.239L99.7694 332.38C102.355 340.116 103.474 348.267 103.069 356.415L100.58 414.711C100.523 415.906 100.008 417.032 99.1429 417.857C98.2773 418.682 97.1272 419.141 95.9316 419.14H85.0339C83.909 419.136 82.8235 418.726 81.9765 417.986C81.1295 417.246 80.5777 416.225 80.4223 415.111L72.6333 350.76C71.9526 345.74 70.1965 340.926 67.4848 336.646L52.1564 312.377C52.0539 312.215 51.9039 312.088 51.7268 312.015C51.5496 311.941 51.3541 311.924 51.1669 311.966C50.9798 312.008 50.8101 312.106 50.681 312.248C50.552 312.39 50.47 312.568 50.4461 312.759L38.417 419.873C38.2879 420.959 37.7796 421.965 36.9816 422.714C36.1837 423.462 35.1472 423.905 34.0548 423.965L24.2339 424.511C24.1455 424.516 24.0574 424.519 23.969 424.519Z" fill="#2F2E41"/>
<path d="M68.9098 149.814C81.5347 149.814 91.7691 139.58 91.7691 126.955C91.7691 114.33 81.5347 104.096 68.9098 104.096C56.285 104.096 46.0505 114.33 46.0505 126.955C46.0505 139.58 56.285 149.814 68.9098 149.814Z" fill="#FFB8B8"/>
<path d="M79.4109 278.909C79.0176 278.908 78.6258 278.859 78.2448 278.761L13.7789 262.232C12.6263 261.937 11.6306 261.211 10.9965 260.204C10.3625 259.198 10.1382 257.986 10.3698 256.819L25.1748 177.065C26.0972 172.455 28.1247 168.138 31.0831 164.484C34.0416 160.83 37.8427 157.949 42.1601 156.088C46.3668 154.226 50.9671 153.428 55.5551 153.765C60.1431 154.102 64.5776 155.563 68.4673 158.019C69.3698 158.582 70.2789 159.196 71.1688 159.844C74.751 162.487 77.6722 165.923 79.7035 169.884C81.7347 173.845 82.8206 178.223 82.8761 182.674L84.0533 274.19C84.0612 274.805 83.9471 275.416 83.7176 275.987C83.488 276.558 83.1476 277.078 82.7159 277.517C82.2843 277.956 81.77 278.305 81.2027 278.544C80.6354 278.783 80.0264 278.907 79.4109 278.909Z" fill="#00939F"/>
<path d="M20.4119 279.847C19.6429 278.715 19.1314 277.429 18.9134 276.078C18.6954 274.727 18.7762 273.345 19.1501 272.029C19.5241 270.713 20.182 269.495 21.0777 268.46C21.9733 267.426 23.0848 266.601 24.334 266.042L21.4666 232.907L36.6615 241.143L37.0548 271.346C37.8536 273.506 37.8321 275.885 36.9944 278.031C36.1566 280.177 34.5608 281.941 32.5094 282.989C30.4579 284.036 28.0934 284.295 25.8637 283.716C23.6341 283.137 21.6943 281.761 20.4119 279.847Z" fill="#FFB8B8"/>
<path d="M23.9134 260.88C23.4847 260.879 23.0577 260.825 22.6423 260.719C21.749 260.491 20.9338 260.026 20.2831 259.373C19.6323 258.72 19.1702 257.903 18.9456 257.009L11.4783 227.334C8.8687 216.97 10.1127 206.011 14.9789 196.495L30.6232 165.892C31.6121 162.228 34.0015 159.099 37.2762 157.181C40.5509 155.262 44.4483 154.708 48.1281 155.637C49.9622 156.1 51.6861 156.922 53.1999 158.057C54.7136 159.191 55.9871 160.615 56.9465 162.245C57.9256 163.899 58.566 165.731 58.8303 167.634C59.0946 169.538 58.9775 171.475 58.4859 173.333L36.2163 223.132L36.4808 252.948C36.4876 253.999 36.1714 255.028 35.5747 255.894C34.9781 256.761 34.1299 257.423 33.1447 257.792L25.6921 260.559C25.1231 260.771 24.5207 260.88 23.9134 260.88Z" fill="#00939F"/>
<path d="M132.44 267.659C131.081 267.504 129.772 267.052 128.606 266.336C127.44 265.62 126.445 264.657 125.692 263.515C124.938 262.373 124.444 261.08 124.244 259.726C124.045 258.373 124.144 256.992 124.536 255.681L97.5513 236.239L113.705 230.095L136.854 249.499C139.012 250.303 140.801 251.871 141.881 253.906C142.961 255.941 143.257 258.301 142.713 260.539C142.169 262.778 140.823 264.739 138.93 266.051C137.036 267.363 134.727 267.935 132.44 267.659Z" fill="#FFB8B8"/>
<path d="M118.314 253.462C117.519 253.461 116.734 253.276 116.022 252.92L88.6599 239.223C79.1028 234.439 71.608 226.348 67.5694 216.453L54.5791 184.631C52.4474 181.491 51.6349 177.639 52.317 173.906C52.9991 170.172 55.1211 166.856 58.2254 164.673C59.7765 163.582 61.5291 162.811 63.3811 162.405C65.2331 161.998 67.1475 161.964 69.0127 162.305C70.8998 162.645 72.7008 163.355 74.3113 164.396C75.9219 165.436 77.3099 166.786 78.395 168.366L101.612 217.731L124.382 236.981C125.184 237.661 125.758 238.572 126.025 239.589C126.293 240.607 126.241 241.682 125.878 242.669L123.114 250.122C122.753 251.1 122.101 251.943 121.246 252.539C120.386 253.14 119.363 253.462 118.314 253.462Z" fill="#00939F"/>
<path d="M64.1097 150.164C65.3243 150.696 67.8115 141.018 66.6973 139.082C65.0404 136.204 65.1384 136.224 64.0384 134.32C62.9385 132.415 62.6924 129.808 64.1168 128.133C65.5411 126.457 68.8374 126.679 69.4874 128.78C69.0692 124.79 73.0166 121.582 76.9266 120.68C80.8366 119.779 84.9609 120.338 88.8925 119.536C93.4552 118.605 98.2026 114.78 96.3821 109.763C96.0697 108.928 95.602 108.159 95.0037 107.498C92.9003 105.133 89.9581 104.123 87.0814 103.146C81.0969 101.115 74.9486 99.0585 68.6327 99.2827C63.4287 99.5548 58.4169 101.338 54.2106 104.414C50.0043 107.49 46.786 111.726 44.9494 116.603C44.5142 117.823 44.177 119.075 43.9411 120.349C41.7732 132.005 48.5422 143.503 59.5363 147.942L64.1097 150.164Z" fill="#2F2E41"/>
<path opacity="0.2" d="M37.1188 254.404L37.6372 223.757L53.8716 191.115L40.8416 224.621L37.1188 254.404Z" fill="#171C26"/>
<path d="M184.337 331.318L115.8 302.842C114.298 302.223 112.957 301.27 111.878 300.055C110.8 298.839 110.013 297.394 109.577 295.829C109.13 294.245 109.049 292.58 109.342 290.961C109.634 289.342 110.293 287.811 111.266 286.484C128.576 262.651 140.031 235.078 144.707 205.996C144.96 204.37 145.581 202.824 146.522 201.474C147.463 200.124 148.7 199.007 150.137 198.207C151.554 197.411 153.133 196.949 154.756 196.856C156.378 196.762 158 197.04 159.498 197.668L228.035 226.144C230.398 227.134 232.333 228.931 233.496 231.214C234.658 233.498 234.973 236.12 234.383 238.613C226.721 269.783 214.334 299.596 197.652 327.018C196.301 329.196 194.221 330.823 191.783 331.61C189.344 332.398 186.706 332.294 184.337 331.318Z" fill="#E6E6E6"/>
<path d="M157.356 202.825C156.636 202.523 155.857 202.389 155.078 202.434C154.299 202.478 153.541 202.7 152.86 203.082C152.161 203.472 151.559 204.017 151.102 204.675C150.645 205.332 150.344 206.086 150.221 206.877C145.406 236.828 133.608 265.225 115.781 289.77C115.306 290.415 114.985 291.16 114.842 291.948C114.698 292.736 114.736 293.546 114.953 294.317C115.163 295.069 115.541 295.763 116.059 296.347C116.577 296.93 117.221 297.388 117.943 297.685L186.479 326.161C187.615 326.633 188.882 326.687 190.055 326.313C191.227 325.939 192.228 325.16 192.88 324.117C209.267 297.181 221.434 267.896 228.96 237.279C229.239 236.08 229.084 234.822 228.523 233.727C227.961 232.632 227.028 231.772 225.892 231.301L157.356 202.825Z" fill="white"/>
<path d="M193.848 266.214L157.883 251.271C156.517 250.701 155.432 249.613 154.867 248.244C154.302 246.876 154.303 245.339 154.869 243.971L155.706 241.956C156.276 240.59 157.364 239.505 158.733 238.94C160.101 238.375 161.638 238.376 163.006 238.942L198.971 253.885C200.337 254.455 201.422 255.543 201.987 256.911C202.552 258.28 202.551 259.816 201.985 261.184L201.147 263.199C200.578 264.566 199.49 265.651 198.121 266.216C196.753 266.781 195.216 266.78 193.848 266.214Z" fill="#00939F"/>
<path d="M183.269 291.676L147.304 276.733C145.937 276.164 144.853 275.075 144.287 273.707C143.722 272.339 143.723 270.802 144.29 269.434L145.127 267.419C145.697 266.052 146.785 264.968 148.153 264.402C149.522 263.837 151.058 263.838 152.426 264.405L188.391 279.348C189.758 279.917 190.843 281.006 191.408 282.374C191.973 283.742 191.972 285.279 191.405 286.647L190.568 288.662C189.999 290.029 188.91 291.113 187.542 291.678C186.173 292.244 184.637 292.243 183.269 291.676Z" fill="#00939F"/>
<path d="M208.26 230.428C207.721 230.427 207.188 230.323 206.689 230.12L170.449 215.468C169.42 215.051 168.599 214.242 168.165 213.22C167.732 212.198 167.721 211.046 168.136 210.016L170.927 203.113C171.343 202.083 172.152 201.261 173.174 200.827C174.197 200.393 175.35 200.384 176.38 200.8L212.62 215.452C213.649 215.869 214.47 216.678 214.904 217.7C215.337 218.722 215.348 219.874 214.933 220.904L212.142 227.807C211.828 228.581 211.292 229.243 210.6 229.709C209.909 230.176 209.094 230.426 208.26 230.428Z" fill="#CCCCCC"/>
<path d="M132.145 450H1.84478C1.59794 450 1.36122 449.902 1.18668 449.727C1.01213 449.553 0.914062 449.316 0.914062 449.069C0.914062 448.822 1.01213 448.586 1.18668 448.411C1.36122 448.237 1.59794 448.139 1.84478 448.139H132.145C132.392 448.139 132.628 448.237 132.803 448.411C132.977 448.586 133.075 448.822 133.075 449.069C133.075 449.316 132.977 449.553 132.803 449.727C132.628 449.902 132.392 450 132.145 450Z" fill="#CCCCCC"/>
</g>
<defs>
<clipPath id="clip0_1_4365">
<rect width="452.172" height="450" fill="white" transform="translate(0.914062)"/>
</clipPath>
</defs>
</svg>
