<svg xmlns="http://www.w3.org/2000/svg" width="32" height="32" viewBox="0 0 32 32" fill="none">
  <path d="M15.9996 15.999C17.5909 15.999 19.1171 15.3669 20.2423 14.2417C21.3675 13.1164 21.9996 11.5903 21.9996 9.99902C21.9996 8.40772 21.3675 6.8816 20.2423 5.75638C19.1171 4.63116 17.5909 3.99902 15.9996 3.99902C14.4083 3.99902 12.8822 4.63116 11.757 5.75638C10.6318 6.8816 9.99963 8.40772 9.99963 9.99902C9.99963 11.5903 10.6318 13.1164 11.757 14.2417C12.8822 15.3669 14.4083 15.999 15.9996 15.999ZM19.9996 9.99902C19.9996 11.0599 19.5782 12.0773 18.8281 12.8275C18.0779 13.5776 17.0605 13.999 15.9996 13.999C14.9388 13.999 13.9214 13.5776 13.1712 12.8275C12.4211 12.0773 11.9996 11.0599 11.9996 9.99902C11.9996 8.93816 12.4211 7.92074 13.1712 7.1706C13.9214 6.42045 14.9388 5.99902 15.9996 5.99902C17.0605 5.99902 18.0779 6.42045 18.8281 7.1706C19.5782 7.92074 19.9996 8.93816 19.9996 9.99902ZM27.9996 25.999C27.9996 27.999 25.9996 27.999 25.9996 27.999H5.99963C5.99963 27.999 3.99963 27.999 3.99963 25.999C3.99963 23.999 5.99963 17.999 15.9996 17.999C25.9996 17.999 27.9996 23.999 27.9996 25.999ZM25.9996 25.991C25.9976 25.499 25.6916 24.019 24.3356 22.663C23.0316 21.359 20.5776 19.999 15.9996 19.999C11.4196 19.999 8.96763 21.359 7.66363 22.663C6.30763 24.019 6.00363 25.499 5.99963 25.991H25.9996Z" fill="#171C26" fill-opacity="0.7"/>
</svg>