<svg xmlns="http://www.w3.org/2000/svg" width="20" height="20" viewBox="0 0 20 20" fill="none">
<path d="M10.9375 3.4375C10.9375 2.91973 10.5178 2.5 9.99999 2.5C9.48222 2.5 9.06249 2.91973 9.06249 3.4375V9.06246H3.4375C2.91973 9.06246 2.5 9.48219 2.5 9.99996C2.5 10.5177 2.91973 10.9375 3.4375 10.9375H9.06249L9.0625 16.5625C9.0625 17.0802 9.48223 17.5 10 17.5C10.5178 17.5 10.9375 17.0802 10.9375 16.5625L10.9375 10.9375H16.5625C17.0803 10.9375 17.5 10.5177 17.5 9.99996C17.5 9.48219 17.0803 9.06246 16.5625 9.06246H10.9375V3.4375Z" fill="#F7FAFC"/>
</svg>