<svg width="501" height="494" viewBox="0 0 501 494" fill="none" xmlns="http://www.w3.org/2000/svg">
<g clip-path="url(#clip0_1_5480)">
<path d="M194.502 293.139C114.797 274.203 65.358 193.954 84.2938 114.249C103.23 34.5438 183.479 -14.8952 263.184 4.04063C286.338 9.56643 307.829 20.5628 325.856 36.1076C343.883 51.6525 357.921 71.2928 366.792 93.3818L365.194 94.0232C356.426 72.1896 342.552 52.7763 324.733 37.4111C306.915 22.0459 285.672 11.1767 262.786 5.71473C184.005 -13.0016 104.684 35.8652 85.968 114.646C67.2516 193.428 116.118 272.749 194.9 291.465C216.829 296.75 239.684 296.879 261.671 291.842C283.659 286.805 304.179 276.738 321.619 262.434L322.705 263.767C305.06 278.24 284.3 288.425 262.055 293.521C239.811 298.617 216.688 298.486 194.502 293.139Z" fill="#E6E6E6"/>
<path d="M462.856 208.852H343.771C337.315 208.852 332.062 201.555 332.062 192.585V70.2377C332.062 61.2684 337.315 53.9707 343.771 53.9707H488.809C495.265 53.9707 500.518 61.2684 500.518 70.2377V156.529C500.518 185.38 483.623 208.852 462.856 208.852Z" fill="#F2F2F2"/>
<path d="M247.16 474.779H256.657L265.886 403.352H244.377L247.16 474.779Z" fill="#A0616A"/>
<path d="M244.061 468.276L259.233 467.37V473.87L273.658 483.832C274.37 484.324 274.907 485.031 275.189 485.85C275.471 486.668 275.485 487.555 275.227 488.382C274.969 489.209 274.454 489.931 273.757 490.444C273.059 490.957 272.216 491.234 271.351 491.234H253.288L250.174 484.804L248.959 491.234H242.148L244.061 468.276Z" fill="#2F2E41"/>
<path d="M106.148 452.127L114.812 456.015L152.477 394.626L132.853 385.82L106.148 452.127Z" fill="#A0616A"/>
<path d="M105.983 444.923L120.196 450.309L117.534 456.24L126.616 471.234C127.064 471.974 127.264 472.839 127.187 473.701C127.109 474.564 126.758 475.379 126.185 476.027C125.611 476.676 124.845 477.124 123.999 477.307C123.153 477.489 122.27 477.397 121.48 477.042L105.001 469.647L104.793 462.506L101.051 467.874L94.8379 465.086L105.983 444.923Z" fill="#2F2E41"/>
<path d="M174.475 247.503L218.403 241.547C218.403 241.547 274.875 399.152 272.511 465.939L236.675 470.36C236.675 470.36 236.947 415.973 238.935 413.878C240.924 411.783 243.376 414.448 240.923 408.456C238.471 402.464 236.503 400.95 239.449 398.028C242.395 395.107 207.544 344.007 207.544 344.007C207.544 344.007 152.707 412.981 149.764 414.943C146.821 416.905 145.394 422.271 145.394 422.271L131.876 462.659C131.876 462.659 110.265 459.381 101.437 437.799C101.437 437.799 149.137 346.762 152.378 345.682C155.618 344.603 157.09 349.998 155.618 344.603C154.147 339.208 151.204 341.17 154.147 339.208C156.129 337.942 158.274 336.952 160.523 336.265L171.943 306.075C163.139 285.883 163.702 266.339 174.475 247.503Z" fill="#2F2E41"/>
<path d="M174.054 212.943L175.666 227.897L174.717 247.508L218.154 242.347L222.235 212.943L217.035 212.994L174.054 212.943Z" fill="#FFB6B6"/>
<path d="M211.001 164.639L194.654 151.733L186.073 151.234L173.34 159.391L170.222 175.298L162.848 193.209L173.663 241.547C173.663 241.547 174.678 245.015 172.019 245.432C169.361 245.849 169.68 250.962 169.68 250.962C169.68 250.962 170.221 255.393 167.64 255.783C165.059 256.173 158.176 256.173 164.199 263.917C170.222 271.66 219 242.312 219 242.312L224.776 206.07C224.776 206.07 238.194 188.048 223.744 177.727L211.001 164.639Z" fill="#6C63FF"/>
<path d="M139.638 274.388C138.917 273.489 138.403 272.443 138.13 271.324C137.858 270.205 137.834 269.04 138.061 267.911C138.288 266.781 138.759 265.715 139.442 264.788C140.126 263.861 141.004 263.094 142.015 262.543L162.577 193.537L175.435 200.01L153.042 266.152C153.856 267.912 153.995 269.91 153.434 271.766C152.873 273.623 151.651 275.209 149.998 276.224C148.346 277.239 146.379 277.613 144.469 277.275C142.56 276.936 140.84 275.909 139.638 274.388Z" fill="#A0616A"/>
<path d="M176.292 158.753C176.292 158.753 172.617 156.8 170.103 165.253C168.09 172.02 151.759 212.326 151.551 222.126C150.207 222.411 148.996 223.135 148.108 224.184C147.221 225.233 146.708 226.547 146.65 227.919L166.842 230.625C170.37 227.649 171.296 223.63 169.931 222.437L174.315 210.463L192.605 172.366L178.974 160.118L176.292 158.753Z" fill="#6C63FF"/>
<path d="M284.185 251.705C284.446 250.583 284.457 249.418 284.219 248.291C283.981 247.164 283.498 246.103 282.805 245.183C282.113 244.263 281.226 243.506 280.209 242.965C279.192 242.424 278.069 242.113 276.919 242.053L229.75 188.182L219.744 200.121L268.537 250.076C268.565 252.015 269.303 253.876 270.611 255.307C271.92 256.739 273.708 257.64 275.637 257.841C277.566 258.042 279.501 257.528 281.077 256.397C282.652 255.267 283.758 253.597 284.185 251.705Z" fill="#A0616A"/>
<path d="M201.13 163.293C201.13 163.293 203.599 159.942 209.521 166.477C214.262 171.708 246.417 200.989 250.843 209.735C252.178 209.41 253.583 209.539 254.837 210.101C256.09 210.663 257.121 211.626 257.767 212.839L240.731 224.011C236.263 222.853 233.69 219.629 234.405 217.963L225.274 209.063L192.307 182.621L199.302 165.683L201.13 163.293Z" fill="#6C63FF"/>
<path d="M209.498 152.377C211.391 149.658 195.035 143.231 191.869 144.453C185.373 146.974 177.698 152.36 171.727 153.126C171.842 150.756 171.63 148.382 171.099 146.071C170.454 148.419 169.817 150.777 169.172 153.134C163.537 152.334 154.15 142.887 156.456 121.094C157.411 112.12 163.993 102.578 185.502 99.0422C205.36 95.79 210.204 110.528 212.062 120.156C216.295 142.018 214.204 152.042 209.498 152.377Z" fill="#2F2E41"/>
<path d="M191.012 144.485C200.839 144.485 208.806 136.519 208.806 126.692C208.806 116.865 200.839 108.898 191.012 108.898C181.185 108.898 173.219 116.865 173.219 126.692C173.219 136.519 181.185 144.485 191.012 144.485Z" fill="#A0616A"/>
<path d="M214.961 120.342L206.438 121.645C202.679 119.291 201.247 115.797 201.069 111.691L201.926 122.335L197.852 122.957C195.193 121.183 194.005 119.262 194.72 117.151L195.22 123.359C184.361 127.272 173.836 130.157 164.95 127.985C164.492 124.99 164.629 121.933 165.352 118.99C166.075 116.047 167.372 113.275 169.166 110.833C170.961 108.391 173.219 106.327 175.811 104.757C178.404 103.188 181.28 102.145 184.276 101.687L188.663 101.016C191.659 100.558 194.715 100.695 197.658 101.419C200.601 102.142 203.373 103.438 205.815 105.233C208.257 107.027 210.321 109.285 211.891 111.878C213.46 114.47 214.504 117.347 214.961 120.342Z" fill="#2F2E41"/>
<path d="M58.5669 474.799C58.0721 474.822 57.5824 474.692 57.1639 474.427C56.7455 474.162 56.4186 473.775 56.2275 473.318C56.0364 472.861 55.9905 472.356 56.0958 471.872C56.2011 471.388 56.4526 470.949 56.8163 470.612L56.9818 469.954C56.96 469.902 56.9381 469.849 56.9161 469.796C56.4177 468.619 55.5825 467.615 54.5155 466.911C53.4484 466.207 52.1971 465.834 50.9187 465.839C49.6403 465.844 48.3918 466.226 47.3301 466.938C46.2683 467.65 45.4406 468.66 44.951 469.841C42.994 474.554 40.5025 479.275 39.889 484.259C39.6189 486.462 39.7328 488.695 40.2259 490.859C35.6296 480.832 33.2428 469.935 33.2275 458.905C33.2265 456.137 33.3802 453.372 33.6881 450.621C33.9424 448.366 34.2954 446.127 34.7468 443.905C37.2104 431.844 42.4997 420.54 50.1804 410.92C53.8979 408.892 56.9042 405.772 58.7944 401.983C59.4791 400.621 59.9631 399.166 60.2312 397.666C59.8119 397.721 58.65 391.334 58.9663 390.942C58.3819 390.055 57.3359 389.614 56.6976 388.749C53.5233 384.445 49.1499 385.197 46.8668 391.045C41.9896 393.507 41.9424 397.589 44.9351 401.515C46.839 404.013 47.1006 407.393 48.7712 410.067C48.5993 410.287 48.4205 410.501 48.2486 410.721C45.1069 414.76 42.3686 419.099 40.0731 423.673C40.6313 418.548 39.9651 413.365 38.1291 408.548C36.2683 404.059 32.7807 400.279 29.7094 396.398C26.0203 391.737 18.4554 393.771 17.8054 399.68C17.7992 399.737 17.793 399.795 17.787 399.852C18.2432 400.109 18.6898 400.382 19.1267 400.671C19.6756 401.038 20.1009 401.562 20.3469 402.175C20.5929 402.787 20.6481 403.46 20.5054 404.104C20.3626 404.749 20.0284 405.335 19.5467 405.786C19.065 406.238 18.4581 406.533 17.8057 406.634L17.7389 406.644C17.9014 408.288 18.1887 409.918 18.5982 411.518C14.6581 426.755 23.1645 432.305 35.3105 432.555C35.5786 432.692 35.8399 432.83 36.108 432.96C33.8017 439.496 32.3551 446.304 31.8044 453.213C31.4927 457.289 31.5111 461.384 31.8595 465.457L31.8388 465.312C30.9588 460.783 28.5427 456.696 24.9985 453.742C19.7345 449.418 12.2975 447.826 6.61856 444.35C6.01503 443.962 5.31328 443.756 4.59606 443.754C3.87885 443.752 3.17609 443.956 2.57067 444.34C1.96526 444.725 1.48243 445.274 1.17915 445.924C0.875867 446.574 0.764796 447.297 0.858999 448.008C0.86661 448.059 0.874334 448.109 0.88221 448.16C1.72877 448.505 2.55304 448.902 3.35021 449.349C3.8064 449.607 4.25295 449.88 4.68988 450.169C5.23876 450.536 5.66405 451.06 5.91005 451.672C6.15605 452.285 6.2113 452.957 6.06851 453.602C5.92572 454.246 5.59157 454.833 5.10985 455.284C4.62814 455.735 4.02132 456.031 3.3689 456.131L3.30203 456.142C3.25392 456.148 3.21265 456.155 3.1646 456.162C4.61106 459.616 6.64122 462.795 9.16614 465.56C11.6298 478.861 22.2112 480.123 33.53 476.25H33.5368C34.7787 481.647 36.5781 486.899 38.906 491.924H58.0863C58.1551 491.711 58.2169 491.491 58.2788 491.278C56.5034 491.39 54.7211 491.283 52.9715 490.962C54.3946 489.216 55.8177 487.456 57.2407 485.709C57.2725 485.677 57.3023 485.642 57.3301 485.606C58.052 484.713 58.7806 483.826 59.5025 482.932L59.5029 482.931C59.5413 480.192 59.2263 477.458 58.5669 474.799Z" fill="#F2F2F2"/>
<path d="M1.54246 493.551L497.766 493.816C498.038 493.816 498.298 493.708 498.491 493.516C498.683 493.324 498.791 493.063 498.791 492.791C498.791 492.52 498.683 492.259 498.491 492.067C498.298 491.875 498.038 491.767 497.766 491.767L1.54246 491.502C1.27128 491.503 1.01146 491.612 0.819981 491.804C0.628502 491.996 0.520996 492.256 0.520996 492.527C0.520996 492.798 0.628502 493.058 0.819981 493.25C1.01146 493.442 1.27128 493.551 1.54246 493.551Z" fill="#CACACA"/>
<path d="M445.363 255.098H284.528C281.423 255.094 278.447 253.859 276.252 251.664C274.057 249.469 272.822 246.493 272.819 243.389V93.9213C272.822 90.817 274.057 87.8409 276.252 85.6458C278.447 83.4508 281.423 82.216 284.528 82.2124H445.363C448.467 82.216 451.443 83.4508 453.639 85.6458C455.834 87.8409 457.068 90.817 457.072 93.9213V243.389C457.068 246.493 455.834 249.469 453.639 251.664C451.443 253.859 448.467 255.094 445.363 255.098Z" fill="#E6E6E6"/>
<path d="M411.512 247.2H292.427C289.323 247.197 286.347 245.962 284.152 243.767C281.957 241.572 280.722 238.596 280.718 235.491V101.826C280.722 98.7213 281.957 95.7452 284.152 93.5501C286.347 91.3551 289.323 90.1203 292.427 90.1167H437.465C440.569 90.1203 443.546 91.3551 445.741 93.5501C447.936 95.7452 449.17 98.7213 449.174 101.826V209.538C449.163 219.523 445.191 229.096 438.131 236.157C431.07 243.217 421.497 247.189 411.512 247.2Z" fill="white"/>
<path d="M348.224 134.716C348.224 138.12 347.216 141.448 345.325 144.279C343.435 147.11 340.747 149.317 337.602 150.62C334.458 151.924 330.997 152.265 327.658 151.602C324.319 150.939 321.252 149.3 318.844 146.894C316.436 144.487 314.796 141.421 314.131 138.082C313.466 134.744 313.806 131.283 315.108 128.137C316.41 124.992 318.616 122.303 321.446 120.411C324.276 118.519 327.603 117.509 331.007 117.508C333.268 117.505 335.508 117.948 337.597 118.812C339.687 119.675 341.586 120.943 343.185 122.541C344.784 124.139 346.052 126.037 346.917 128.127C347.781 130.216 348.225 132.455 348.224 134.716Z" fill="#6C63FF"/>
<path d="M360.045 165.766H318.225C315.816 165.766 313.863 167.719 313.863 170.128V172.212C313.863 174.621 315.816 176.574 318.225 176.574H360.045C362.453 176.574 364.406 174.621 364.406 172.212V170.128C364.406 167.719 362.453 165.766 360.045 165.766Z" fill="#3F3D56"/>
<path d="M411.525 187.382H318.367C315.958 187.382 314.005 189.335 314.005 191.744V193.829C314.005 196.238 315.958 198.19 318.367 198.19H411.525C413.934 198.19 415.887 196.238 415.887 193.829V191.744C415.887 189.335 413.934 187.382 411.525 187.382Z" fill="#3F3D56"/>
<path d="M411.525 208.999H318.367C315.958 208.999 314.005 210.951 314.005 213.36V215.445C314.005 217.854 315.958 219.807 318.367 219.807H411.525C413.934 219.807 415.887 217.854 415.887 215.445V213.36C415.887 210.951 413.934 208.999 411.525 208.999Z" fill="#3F3D56"/>
<path d="M331.391 137.21C334.718 137.21 337.414 134.514 337.414 131.188C337.414 127.861 334.718 125.165 331.391 125.165C328.065 125.165 325.369 127.861 325.369 131.188C325.369 134.514 328.065 137.21 331.391 137.21Z" fill="white"/>
<path d="M337.847 139.362H324.942C324.143 139.363 323.378 139.68 322.813 140.245C322.249 140.809 321.931 141.575 321.93 142.373C322.114 144.952 322.517 147.511 323.135 150.022C325.723 151.356 328.608 152.01 331.518 151.925C334.429 151.839 337.269 151.015 339.775 149.532C340.327 147.178 340.69 144.784 340.859 142.373C340.858 141.575 340.54 140.809 339.976 140.245C339.411 139.68 338.646 139.363 337.847 139.362Z" fill="white"/>
<path d="M429.77 119.205C427.521 119.205 425.322 118.538 423.452 117.288C421.582 116.039 420.124 114.263 419.264 112.185C418.403 110.107 418.178 107.82 418.616 105.614C419.055 103.408 420.138 101.381 421.729 99.7909C423.319 98.2004 425.346 97.1173 427.552 96.6785C429.758 96.2397 432.045 96.4649 434.123 97.3257C436.201 98.1864 437.977 99.6441 439.226 101.514C440.476 103.385 441.143 105.583 441.143 107.833C441.143 110.849 439.945 113.741 437.812 115.874C435.679 118.007 432.787 119.205 429.77 119.205Z" fill="#E6E6E6"/>
<path d="M433.737 110.213L431.357 107.833L433.737 105.453C433.947 105.243 434.065 104.957 434.065 104.66C434.065 104.362 433.947 104.077 433.737 103.867C433.526 103.656 433.241 103.538 432.944 103.538C432.646 103.538 432.361 103.656 432.15 103.867L429.77 106.246L427.391 103.867C427.18 103.656 426.895 103.538 426.597 103.538C426.3 103.538 426.015 103.656 425.804 103.867C425.594 104.077 425.476 104.362 425.476 104.66C425.476 104.957 425.594 105.243 425.804 105.453L428.184 107.833L425.804 110.213C425.594 110.423 425.476 110.709 425.476 111.006C425.476 111.304 425.594 111.589 425.804 111.799C426.015 112.01 426.3 112.128 426.597 112.128C426.895 112.128 427.18 112.01 427.391 111.799L429.77 109.42L432.15 111.799C432.254 111.903 432.378 111.986 432.514 112.042C432.65 112.099 432.796 112.128 432.944 112.128C433.091 112.128 433.237 112.099 433.373 112.042C433.509 111.986 433.633 111.903 433.737 111.799C433.841 111.695 433.924 111.571 433.98 111.435C434.036 111.299 434.065 111.153 434.065 111.006C434.065 110.859 434.036 110.713 433.98 110.577C433.924 110.441 433.841 110.317 433.737 110.213Z" fill="white"/>
</g>
<defs>
<clipPath id="clip0_1_5480">
<rect width="500" height="493.816" fill="white" transform="translate(0.518066)"/>
</clipPath>
</defs>
</svg>
