<svg width="601" height="380" viewBox="0 0 601 380" fill="none" xmlns="http://www.w3.org/2000/svg">
<g clip-path="url(#clip0_1_5351)">
<path d="M227.448 59.7572C227.034 60.2903 226.463 60.6791 225.815 60.868C225.167 61.0568 224.476 61.0359 223.841 60.8085C223.648 60.7512 223.458 60.6821 223.274 60.6014C223.482 58.3715 223.379 56.1234 222.967 53.922C222.805 55.8142 222.342 57.6685 221.596 59.4149C220.988 58.805 220.49 58.0942 220.124 57.3142C219.444 55.7001 218.993 53.9986 218.784 52.2593C217.777 46.3333 216.784 40.1684 218.427 34.3772C220.834 25.9174 228.423 19.8356 231.593 11.6276L233.155 10.2256C235.829 14.7782 235.947 20.4353 234.857 25.5976C233.773 30.7702 231.589 35.6248 229.862 40.6131C228.135 45.6013 226.841 50.9073 227.642 56.1269C227.826 57.3559 228.107 58.7067 227.448 59.7572Z" fill="#2F2E41"/>
<path d="M192.738 131.34L182.56 177.891L227.015 192.371L220.478 131.34H192.738Z" fill="#FFB6B6"/>
<path d="M506.444 378.389H526.589V286.033C526.562 262.198 517.082 239.348 500.229 222.494C483.375 205.64 460.524 196.16 436.69 196.133C363.575 196.133 322.583 196.133 249.468 196.133C225.634 196.16 202.783 205.64 185.929 222.494C169.075 239.348 159.595 262.198 159.568 286.033V378.389H179.713V315.294C179.74 291.238 189.309 268.175 206.319 251.164C223.33 234.154 246.393 224.585 270.449 224.558H415.708C439.765 224.585 462.828 234.154 479.839 251.164C496.849 268.175 506.417 291.238 506.444 315.294V378.389Z" fill="#E6E6E6"/>
<path d="M406.245 128.022H363.602C362.999 128.023 362.421 128.264 361.995 128.691C361.569 129.118 361.33 129.697 361.331 130.3V197.663H408.523V130.3C408.523 130.001 408.464 129.705 408.35 129.428C408.235 129.152 408.067 128.901 407.856 128.689C407.644 128.478 407.393 128.31 407.117 128.196C406.84 128.081 406.544 128.022 406.245 128.022ZM385.067 166.297C383.734 166.291 382.456 165.758 381.513 164.816C380.57 163.873 380.038 162.595 380.032 161.262V153.492C380.033 152.158 380.565 150.879 381.509 149.936C382.453 148.993 383.733 148.463 385.067 148.463C386.401 148.463 387.681 148.993 388.625 149.936C389.569 150.879 390.101 152.158 390.103 153.492V161.262C390.096 162.595 389.564 163.873 388.621 164.816C387.678 165.759 386.401 166.291 385.067 166.297Z" fill="#3F3D56"/>
<path d="M476.858 22.895H294.577C293.011 22.8975 291.509 23.5207 290.402 24.6281C289.295 25.7355 288.671 27.2367 288.669 28.8028V151.807C288.67 153.373 289.293 154.875 290.401 155.982C291.509 157.09 293.01 157.713 294.577 157.714H476.857C478.424 157.713 479.926 157.09 481.033 155.982C482.141 154.875 482.764 153.373 482.765 151.807V28.8028C482.763 27.2367 482.14 25.7355 481.032 24.6281C479.925 23.5207 478.424 22.8975 476.858 22.895Z" fill="#3F3D56"/>
<path d="M475.336 27.1621H296.099C295.261 27.1639 294.457 27.4983 293.865 28.0918C293.273 28.6854 292.94 29.4896 292.94 30.3282V150.283C292.941 151.121 293.275 151.923 293.867 152.516C294.459 153.108 295.262 153.441 296.099 153.443H475.336C476.173 153.441 476.976 153.108 477.568 152.516C478.16 151.923 478.494 151.121 478.495 150.283V30.3282C478.495 29.4896 478.162 28.6854 477.57 28.0918C476.978 27.4983 476.174 27.1639 475.336 27.1621Z" fill="white"/>
<path d="M361.184 195.508V202.007C361.185 202.344 361.319 202.667 361.557 202.905C361.795 203.143 362.118 203.277 362.455 203.278H407.398C407.735 203.276 408.057 203.142 408.295 202.904C408.533 202.666 408.667 202.344 408.669 202.007V195.508H361.184Z" fill="#3F3D56"/>
<path d="M440.424 205.54H333.788C333.496 205.54 333.208 205.474 332.944 205.349C332.681 205.223 332.448 205.041 332.265 204.814C332.081 204.587 331.95 204.322 331.881 204.039C331.812 203.755 331.808 203.459 331.868 203.174L333.523 195.315C333.617 194.876 333.859 194.481 334.208 194.198C334.557 193.915 334.993 193.759 335.442 193.758H438.769C439.219 193.759 439.654 193.915 440.004 194.198C440.353 194.481 440.594 194.876 440.689 195.315L442.343 203.174C442.403 203.459 442.399 203.755 442.33 204.039C442.262 204.322 442.131 204.587 441.947 204.814C441.763 205.041 441.531 205.223 441.267 205.349C441.004 205.474 440.716 205.54 440.424 205.54Z" fill="#3F3D56"/>
<path d="M339.075 195.173H336.607C336.382 195.173 336.199 195.356 336.199 195.581V196.735C336.199 196.961 336.382 197.143 336.607 197.143H339.075C339.301 197.143 339.483 196.961 339.483 196.735V195.581C339.483 195.356 339.301 195.173 339.075 195.173Z" fill="#E6E6E6"/>
<path d="M345.644 195.173H343.176C342.951 195.173 342.768 195.356 342.768 195.581V196.735C342.768 196.961 342.951 197.143 343.176 197.143H345.644C345.87 197.143 346.052 196.961 346.052 196.735V195.581C346.052 195.356 345.87 195.173 345.644 195.173Z" fill="#E6E6E6"/>
<path d="M352.213 195.173H349.745C349.519 195.173 349.336 195.356 349.336 195.581V196.735C349.336 196.961 349.519 197.143 349.745 197.143H352.213C352.438 197.143 352.621 196.961 352.621 196.735V195.581C352.621 195.356 352.438 195.173 352.213 195.173Z" fill="#E6E6E6"/>
<path d="M358.781 195.173H356.313C356.088 195.173 355.905 195.356 355.905 195.581V196.735C355.905 196.961 356.088 197.143 356.313 197.143H358.781C359.007 197.143 359.19 196.961 359.19 196.735V195.581C359.19 195.356 359.007 195.173 358.781 195.173Z" fill="#E6E6E6"/>
<path d="M365.35 195.173H362.882C362.656 195.173 362.474 195.356 362.474 195.581V196.735C362.474 196.961 362.656 197.143 362.882 197.143H365.35C365.575 197.143 365.758 196.961 365.758 196.735V195.581C365.758 195.356 365.575 195.173 365.35 195.173Z" fill="#E6E6E6"/>
<path d="M371.918 195.173H369.45C369.225 195.173 369.042 195.356 369.042 195.581V196.735C369.042 196.961 369.225 197.143 369.45 197.143H371.918C372.144 197.143 372.326 196.961 372.326 196.735V195.581C372.326 195.356 372.144 195.173 371.918 195.173Z" fill="#E6E6E6"/>
<path d="M378.487 195.173H376.019C375.794 195.173 375.611 195.356 375.611 195.581V196.735C375.611 196.961 375.794 197.143 376.019 197.143H378.487C378.712 197.143 378.895 196.961 378.895 196.735V195.581C378.895 195.356 378.712 195.173 378.487 195.173Z" fill="#E6E6E6"/>
<path d="M385.055 195.173H382.587C382.362 195.173 382.179 195.356 382.179 195.581V196.735C382.179 196.961 382.362 197.143 382.587 197.143H385.055C385.281 197.143 385.463 196.961 385.463 196.735V195.581C385.463 195.356 385.281 195.173 385.055 195.173Z" fill="#E6E6E6"/>
<path d="M391.624 195.173H389.156C388.931 195.173 388.748 195.356 388.748 195.581V196.735C388.748 196.961 388.931 197.143 389.156 197.143H391.624C391.85 197.143 392.032 196.961 392.032 196.735V195.581C392.032 195.356 391.85 195.173 391.624 195.173Z" fill="#E6E6E6"/>
<path d="M398.193 195.173H395.725C395.499 195.173 395.316 195.356 395.316 195.581V196.735C395.316 196.961 395.499 197.143 395.725 197.143H398.193C398.418 197.143 398.601 196.961 398.601 196.735V195.581C398.601 195.356 398.418 195.173 398.193 195.173Z" fill="#E6E6E6"/>
<path d="M404.761 195.173H402.293C402.067 195.173 401.885 195.356 401.885 195.581V196.735C401.885 196.961 402.067 197.143 402.293 197.143H404.761C404.986 197.143 405.169 196.961 405.169 196.735V195.581C405.169 195.356 404.986 195.173 404.761 195.173Z" fill="#E6E6E6"/>
<path d="M411.33 195.173H408.862C408.636 195.173 408.454 195.356 408.454 195.581V196.735C408.454 196.961 408.636 197.143 408.862 197.143H411.33C411.555 197.143 411.738 196.961 411.738 196.735V195.581C411.738 195.356 411.555 195.173 411.33 195.173Z" fill="#E6E6E6"/>
<path d="M417.898 195.173H415.43C415.205 195.173 415.022 195.356 415.022 195.581V196.735C415.022 196.961 415.205 197.143 415.43 197.143H417.898C418.124 197.143 418.306 196.961 418.306 196.735V195.581C418.306 195.356 418.124 195.173 417.898 195.173Z" fill="#E6E6E6"/>
<path d="M424.467 195.173H421.999C421.774 195.173 421.591 195.356 421.591 195.581V196.735C421.591 196.961 421.774 197.143 421.999 197.143H424.467C424.692 197.143 424.875 196.961 424.875 196.735V195.581C424.875 195.356 424.692 195.173 424.467 195.173Z" fill="#E6E6E6"/>
<path d="M431.035 195.173H428.567C428.342 195.173 428.159 195.356 428.159 195.581V196.735C428.159 196.961 428.342 197.143 428.567 197.143H431.035C431.261 197.143 431.443 196.961 431.443 196.735V195.581C431.443 195.356 431.261 195.173 431.035 195.173Z" fill="#E6E6E6"/>
<path d="M437.604 195.173H435.136C434.91 195.173 434.728 195.356 434.728 195.581V196.735C434.728 196.961 434.91 197.143 435.136 197.143H437.604C437.829 197.143 438.012 196.961 438.012 196.735V195.581C438.012 195.356 437.829 195.173 437.604 195.173Z" fill="#E6E6E6"/>
<path d="M338.998 198.457H336.53C336.304 198.457 336.122 198.64 336.122 198.865V200.019C336.122 200.245 336.304 200.428 336.53 200.428H338.998C339.223 200.428 339.406 200.245 339.406 200.019V198.865C339.406 198.64 339.223 198.457 338.998 198.457Z" fill="#E6E6E6"/>
<path d="M345.567 198.457H343.099C342.873 198.457 342.69 198.64 342.69 198.865V200.019C342.69 200.245 342.873 200.428 343.099 200.428H345.567C345.792 200.428 345.975 200.245 345.975 200.019V198.865C345.975 198.64 345.792 198.457 345.567 198.457Z" fill="#E6E6E6"/>
<path d="M352.135 198.457H349.667C349.442 198.457 349.259 198.64 349.259 198.865V200.019C349.259 200.245 349.442 200.428 349.667 200.428H352.135C352.36 200.428 352.543 200.245 352.543 200.019V198.865C352.543 198.64 352.36 198.457 352.135 198.457Z" fill="#E6E6E6"/>
<path d="M358.704 198.457H356.236C356.01 198.457 355.828 198.64 355.828 198.865V200.019C355.828 200.245 356.01 200.428 356.236 200.428H358.704C358.929 200.428 359.112 200.245 359.112 200.019V198.865C359.112 198.64 358.929 198.457 358.704 198.457Z" fill="#E6E6E6"/>
<path d="M365.272 198.457H362.804C362.579 198.457 362.396 198.64 362.396 198.865V200.019C362.396 200.245 362.579 200.428 362.804 200.428H365.272C365.498 200.428 365.68 200.245 365.68 200.019V198.865C365.68 198.64 365.498 198.457 365.272 198.457Z" fill="#E6E6E6"/>
<path d="M371.84 198.457H369.373C369.147 198.457 368.964 198.64 368.964 198.865V200.019C368.964 200.245 369.147 200.428 369.373 200.428H371.84C372.066 200.428 372.249 200.245 372.249 200.019V198.865C372.249 198.64 372.066 198.457 371.84 198.457Z" fill="#E6E6E6"/>
<path d="M378.409 198.457H375.941C375.716 198.457 375.533 198.64 375.533 198.865V200.019C375.533 200.245 375.716 200.428 375.941 200.428H378.409C378.635 200.428 378.818 200.245 378.818 200.019V198.865C378.818 198.64 378.635 198.457 378.409 198.457Z" fill="#E6E6E6"/>
<path d="M384.978 198.457H382.51C382.284 198.457 382.102 198.64 382.102 198.865V200.019C382.102 200.245 382.284 200.428 382.51 200.428H384.978C385.203 200.428 385.386 200.245 385.386 200.019V198.865C385.386 198.64 385.203 198.457 384.978 198.457Z" fill="#E6E6E6"/>
<path d="M391.547 198.457H389.079C388.853 198.457 388.67 198.64 388.67 198.865V200.019C388.67 200.245 388.853 200.428 389.079 200.428H391.547C391.772 200.428 391.955 200.245 391.955 200.019V198.865C391.955 198.64 391.772 198.457 391.547 198.457Z" fill="#E6E6E6"/>
<path d="M398.115 198.457H395.647C395.422 198.457 395.239 198.64 395.239 198.865V200.019C395.239 200.245 395.422 200.428 395.647 200.428H398.115C398.34 200.428 398.523 200.245 398.523 200.019V198.865C398.523 198.64 398.34 198.457 398.115 198.457Z" fill="#E6E6E6"/>
<path d="M404.683 198.457H402.215C401.99 198.457 401.807 198.64 401.807 198.865V200.019C401.807 200.245 401.99 200.428 402.215 200.428H404.683C404.909 200.428 405.091 200.245 405.091 200.019V198.865C405.091 198.64 404.909 198.457 404.683 198.457Z" fill="#E6E6E6"/>
<path d="M411.252 198.457H408.784C408.559 198.457 408.376 198.64 408.376 198.865V200.019C408.376 200.245 408.559 200.428 408.784 200.428H411.252C411.478 200.428 411.66 200.245 411.66 200.019V198.865C411.66 198.64 411.478 198.457 411.252 198.457Z" fill="#E6E6E6"/>
<path d="M417.82 198.457H415.352C415.127 198.457 414.944 198.64 414.944 198.865V200.019C414.944 200.245 415.127 200.428 415.352 200.428H417.82C418.046 200.428 418.229 200.245 418.229 200.019V198.865C418.229 198.64 418.046 198.457 417.82 198.457Z" fill="#E6E6E6"/>
<path d="M424.389 198.457H421.921C421.696 198.457 421.513 198.64 421.513 198.865V200.019C421.513 200.245 421.696 200.428 421.921 200.428H424.389C424.615 200.428 424.797 200.245 424.797 200.019V198.865C424.797 198.64 424.615 198.457 424.389 198.457Z" fill="#E6E6E6"/>
<path d="M430.958 198.457H428.49C428.264 198.457 428.082 198.64 428.082 198.865V200.019C428.082 200.245 428.264 200.428 428.49 200.428H430.958C431.183 200.428 431.366 200.245 431.366 200.019V198.865C431.366 198.64 431.183 198.457 430.958 198.457Z" fill="#E6E6E6"/>
<path d="M437.527 198.457H435.059C434.833 198.457 434.65 198.64 434.65 198.865V200.019C434.65 200.245 434.833 200.428 435.059 200.428H437.527C437.752 200.428 437.935 200.245 437.935 200.019V198.865C437.935 198.64 437.752 198.457 437.527 198.457Z" fill="#E6E6E6"/>
<path d="M393.517 202.398H368.059C367.834 202.398 367.651 202.581 367.651 202.807V203.961C367.651 204.186 367.834 204.369 368.059 204.369H393.517C393.742 204.369 393.925 204.186 393.925 203.961V202.807C393.925 202.581 393.742 202.398 393.517 202.398Z" fill="#E6E6E6"/>
<path d="M448.611 57.2752V120.413C448.61 124.641 446.93 128.696 443.941 131.686C440.951 134.676 436.896 136.355 432.668 136.356H353.645C350.534 136.357 347.491 135.448 344.89 133.741C342.289 132.034 340.244 129.604 339.006 126.75C338.592 125.807 338.275 124.823 338.062 123.815C339.741 124.465 341.527 124.797 343.329 124.794H422.351C426.247 124.788 429.983 123.238 432.738 120.483C435.493 117.728 437.043 113.992 437.048 110.096V46.9584C437.052 45.1573 436.72 43.3712 436.07 41.6914C437.078 41.905 438.062 42.2215 439.005 42.6361C441.859 43.8738 444.289 45.9189 445.996 48.5199C447.703 51.1209 448.612 54.1642 448.611 57.2752Z" fill="#F2F2F2"/>
<path d="M153.801 308.476L145.964 313.329L122.873 284.945L134.44 277.784L153.801 308.476Z" fill="#FFB6B6"/>
<path d="M160.568 318.613L154.264 321.428L150.481 315.978L150.256 323.217L133.534 330.682C132.732 331.04 131.838 331.132 130.98 330.945C130.122 330.759 129.347 330.302 128.767 329.644C128.186 328.985 127.832 328.158 127.755 327.284C127.678 326.409 127.883 325.533 128.339 324.783L137.576 309.6L134.889 303.582L149.309 298.15L160.568 318.613Z" fill="#2F2E41"/>
<path d="M136.136 304.266L150.136 298.266C140.302 273.997 135.042 250.875 121.408 221.523C153.757 228.139 176.884 227.737 203.637 221.805C212.694 219.828 236.064 201.777 234.142 192.521C234.052 192.088 233.946 191.66 233.824 191.235C230.952 181.444 232.974 166.45 226.759 155.585C215.259 151.249 197.788 165.89 184.121 174.814C177.531 179.117 182.355 184.981 177.432 186.518L158.564 192.643L112.27 185.167C110.033 184.827 107.751 184.935 105.555 185.482C103.359 186.029 101.293 187.005 99.4768 188.354C97.6601 189.703 96.1283 191.398 94.9698 193.342C93.8114 195.286 93.0491 197.44 92.7269 199.68C92.6485 200.182 92.5918 200.688 92.5566 201.196C94.6867 212.987 94.3332 222.704 99.2976 235.367C100.45 238.307 100.945 239.302 102.557 242.766C104.168 246.23 105.833 250.115 108.057 254.766C117.643 274.817 130.136 282.266 136.136 304.266Z" fill="#2F2E41"/>
<path d="M106.509 359.284L98.3433 355.021L111.263 320.797L123.314 327.088L106.509 359.284Z" fill="#FFB6B6"/>
<path d="M97.0566 349.266L110.557 356.766C126.604 333.558 144.708 288.527 152.468 253.827C182.681 240.647 209.118 225.568 227.541 205.342C230.567 201.951 232.153 197.516 231.964 192.975C231.776 188.435 229.826 184.146 226.53 181.018C226.208 180.716 225.874 180.426 225.53 180.149C217.55 173.793 199.828 177.45 188.5 172.138L168.265 200.145L170.591 206.668L163.552 210.095L157.608 212.988L150.804 216.3L128.5 227.158C126.478 228.169 124.676 229.57 123.198 231.281C121.72 232.991 120.596 234.978 119.889 237.125C119.183 239.272 118.909 241.538 119.082 243.792C119.256 246.046 119.874 248.244 120.901 250.257C121.127 250.713 121.371 251.159 121.635 251.595L113.352 292.862C113.352 292.862 112.045 297.266 112.045 299.374C110.412 307.505 110.412 307.505 110.412 307.505L97.0566 349.266Z" fill="#2F2E41"/>
<path d="M101.564 378.145L95.4428 374.95L97.3663 368.601L91.5519 372.919L75.3175 364.447C74.5393 364.04 73.9113 363.396 73.5252 362.608C73.139 361.82 73.015 360.929 73.1711 360.065C73.3273 359.201 73.7555 358.41 74.3932 357.807C75.0309 357.203 75.8447 356.82 76.7158 356.712L94.3531 354.524L97.4023 348.682L110.614 356.613L101.564 378.145Z" fill="#2F2E41"/>
<path d="M280.039 198.729L270.489 175.65L262.965 179.83L267.509 203.308C267.054 204.795 267.023 206.38 267.419 207.884C267.815 209.388 268.623 210.752 269.752 211.822C270.881 212.892 272.286 213.626 273.809 213.942C275.332 214.257 276.913 214.142 278.374 213.608C279.835 213.074 281.118 212.143 282.079 210.92C283.04 209.697 283.641 208.23 283.814 206.684C283.987 205.138 283.725 203.575 283.059 202.17C282.392 200.764 281.346 199.573 280.039 198.729Z" fill="#FFB6B6"/>
<path d="M119.784 16.2251L134.315 36.5405L140.697 30.7642L130.951 8.92662C131.058 7.37479 130.729 5.8241 130.002 4.44886C129.275 3.07362 128.179 1.92836 126.837 1.14184C125.495 0.35532 123.961 -0.0412813 122.406 -0.00337553C120.851 0.0345302 119.337 0.50544 118.035 1.35641C116.733 2.20738 115.694 3.40468 115.035 4.8137C114.376 6.22271 114.124 7.78758 114.305 9.33239C114.487 10.8772 115.096 12.3407 116.064 13.5584C117.032 14.776 118.32 15.6995 119.784 16.2251Z" fill="#FFB6B6"/>
<path d="M176.603 173.478C167.178 188.097 206.052 191.458 224.231 184.01C227.414 182.706 238.363 178.398 230.879 172.426C223.394 166.453 231.747 173.137 231.944 169.249C232.076 166.65 232.163 161.193 232.163 161.193C232.163 161.193 235.468 155.364 230.895 153.817C229.305 153.25 227.91 152.24 226.873 150.907C225.837 149.575 225.202 147.974 225.043 146.293C224.606 130.269 230.032 113.539 230.032 113.539L252.186 170.168C252.186 170.168 252.022 179.965 254.847 176.971C257.672 173.978 257.466 183.667 257.466 183.667C257.466 183.667 261.667 186.599 259.252 188.231C256.836 189.862 261.852 194.879 261.852 194.879L278.057 193.266C278.057 193.266 276.055 185.189 274.057 183.266C272.058 181.343 272.557 178.266 272.557 178.266C272.557 178.266 268.151 174.779 270.557 170.266C272.962 165.753 251.127 84.8867 251.127 84.8867C250.329 81.0026 248.473 77.4148 245.763 74.52C243.053 71.6251 239.596 69.5359 235.773 68.4833L223.131 65.0026L220.886 56.0961H203.086L199.985 61.9484L171.56 59.4403C171.56 59.4403 143.434 33.8492 144.807 31.851C146.18 29.8528 141.82 25.1746 141.82 25.1746C141.82 25.1746 138.096 23.9559 140.198 23.3052C142.299 22.6545 138.327 21.1501 138.327 21.1501C138.327 21.1501 134.649 20.1836 136.384 18.9109C138.118 17.6383 130.594 16.8022 130.594 16.8022L120.832 24.7677L122.805 28.1134C122.805 28.1134 121.602 32.6693 123.172 31.0061C124.742 29.3429 125.037 34.1696 125.037 34.1696C125.037 34.1696 125.839 39.455 130.594 41.0474C135.349 42.6398 138.954 57.7682 138.954 57.7682L179.084 91.2097C172.972 98.2251 174.427 105.561 179.841 113.065L176.603 173.478Z" fill="#6C63FF"/>
<path d="M216.041 50.1788C226.687 50.1788 235.317 41.5489 235.317 30.9034C235.317 20.2578 226.687 11.6279 216.041 11.6279C205.396 11.6279 196.766 20.2578 196.766 30.9034C196.766 41.5489 205.396 50.1788 216.041 50.1788Z" fill="#FFB6B6"/>
<path d="M232.867 25.1628C232.374 25.3049 225.134 26.2497 221.999 26.8349C218.922 27.4118 218.387 23.4907 215.871 24.2265C215.872 24.2093 215.869 24.1921 215.862 24.1763C215.472 22.0987 214.806 20.0827 213.881 18.1819C214.216 20.0024 214.264 21.8643 214.023 23.6997C214.022 23.7475 214.016 23.7951 214.006 23.8419C213.998 23.9255 213.981 24.0007 213.973 24.0843C211.314 22.9139 209.626 23.9589 207.786 24.3268C205.73 24.7364 204.124 25.6394 205.278 32.6872C207.644 47.1841 219.951 52.3592 217.819 61.9485C217.401 63.8463 216.347 66.2207 215.026 66.8143C214.636 64.7367 213.97 62.7207 213.045 60.8199C213.38 62.6404 213.428 64.5023 213.187 66.3377C211.139 64.1222 209.659 56.3805 202.77 50.244C201.073 48.7391 192.57 39.8102 191.55 37.7034C191.863 39.3878 192.015 41.0984 192.002 42.8116C192.004 43.9583 191.926 45.1036 191.768 46.2393C191.768 46.3125 191.759 46.3855 191.743 46.4567C191.734 46.5905 191.709 46.7075 191.693 46.833C191.676 46.9751 191.651 47.1088 191.626 47.251C188.842 46.8497 186.375 46.3648 185.213 45.2277C179.562 39.7266 186.459 29.0086 190.229 19.3105C195.622 5.42394 211.281 3.5763 212.803 3.42581C219.508 2.74862 230.836 4.1866 234.54 11.7862C237.131 17.1118 235.476 24.4104 232.867 25.1628Z" fill="#2F2E41"/>
<path d="M192.223 28.2973L206.186 6.57676C202.84 4.63415 199.029 3.6346 195.16 3.68439C193.232 3.72446 191.334 4.1704 189.59 4.99314C187.845 5.81587 186.294 6.99695 185.037 8.45938C182.185 12.0035 181.696 17.0136 182.764 21.4353C183.133 22.9624 190.16 17.5892 188.487 20.0973C187.115 22.061 184.87 30.3149 184.307 32.6379C183.401 36.3765 180.91 40.2141 183.129 43.3563C185.753 47.0721 190.436 48.919 194.981 49.1066C199.526 49.2942 204 48.0346 208.32 46.6079L192.223 28.2973Z" fill="#2F2E41"/>
<path d="M197.588 27.4409C197.386 27.4407 197.192 27.3676 197.04 27.2351C196.888 27.1027 196.789 26.9197 196.761 26.72C196.733 26.5203 196.778 26.3173 196.889 26.1484C196.999 25.9794 197.166 25.856 197.36 25.8007C197.579 25.439 197.489 23.9167 197.417 22.6868C197.145 18.0685 196.69 10.3393 204.194 5.12179C204.376 4.99523 204.601 4.94614 204.819 4.98534C205.037 5.02454 205.231 5.1488 205.357 5.3308C205.484 5.5128 205.533 5.73761 205.494 5.9558C205.455 6.17399 205.33 6.36767 205.148 6.49423C198.414 11.177 198.818 18.0445 199.086 22.5884C199.239 25.1863 199.35 27.0629 197.774 27.4201C197.713 27.434 197.651 27.441 197.588 27.4409Z" fill="#6C63FF"/>
<path d="M0.056645 377.848C0.0558633 378.111 0.159626 378.364 0.345092 378.551C0.530559 378.737 0.78254 378.843 1.04561 378.843H599.062C599.326 378.843 599.579 378.739 599.765 378.552C599.952 378.365 600.057 378.112 600.057 377.848C600.057 377.585 599.952 377.332 599.765 377.145C599.579 376.958 599.326 376.854 599.062 376.854H1.05156C0.921292 376.853 0.792232 376.878 0.671734 376.928C0.551236 376.977 0.44166 377.05 0.349276 377.142C0.256892 377.234 0.183507 377.343 0.133301 377.463C0.0830964 377.583 0.0570531 377.712 0.0566705 377.843L0.056645 377.848Z" fill="#CCCCCC"/>
<path d="M370.033 79.2978H357.382C357.046 79.2978 356.724 79.1645 356.487 78.9272C356.25 78.69 356.117 78.3682 356.117 78.0327C356.117 77.6972 356.25 77.3754 356.487 77.1381C356.724 76.9009 357.046 76.7676 357.382 76.7676H370.033C370.368 76.7676 370.69 76.9009 370.927 77.1381C371.165 77.3754 371.298 77.6972 371.298 78.0327C371.298 78.3682 371.165 78.69 370.927 78.9272C370.69 79.1645 370.368 79.2978 370.033 79.2978Z" fill="#6C63FF"/>
<path d="M392.805 79.2978H380.154C379.988 79.2978 379.823 79.2651 379.67 79.2015C379.516 79.1379 379.377 79.0447 379.259 78.9272C379.142 78.8098 379.049 78.6703 378.985 78.5168C378.921 78.3633 378.889 78.1988 378.889 78.0327C378.889 77.8665 378.921 77.702 378.985 77.5485C379.049 77.395 379.142 77.2556 379.259 77.1381C379.377 77.0206 379.516 76.9274 379.67 76.8639C379.823 76.8003 379.988 76.7676 380.154 76.7676H392.805C392.971 76.7676 393.135 76.8003 393.289 76.8639C393.442 76.9274 393.582 77.0206 393.699 77.1381C393.817 77.2556 393.91 77.395 393.974 77.5485C394.037 77.702 394.07 77.8665 394.07 78.0327C394.07 78.1988 394.037 78.3633 393.974 78.5168C393.91 78.6703 393.817 78.8098 393.699 78.9272C393.582 79.0447 393.442 79.1379 393.289 79.2015C393.135 79.2651 392.971 79.2978 392.805 79.2978Z" fill="#6C63FF"/>
<path d="M404.191 89.4184H391.54C391.373 89.4184 391.209 89.3857 391.055 89.3221C390.902 89.2585 390.762 89.1653 390.645 89.0479C390.528 88.9304 390.434 88.7909 390.371 88.6374C390.307 88.4839 390.274 88.3194 390.274 88.1533C390.274 87.9872 390.307 87.8226 390.371 87.6691C390.434 87.5156 390.528 87.3762 390.645 87.2587C390.762 87.1412 390.902 87.0481 391.055 86.9845C391.209 86.9209 391.373 86.8882 391.54 86.8882H404.191C404.357 86.8882 404.521 86.9209 404.675 86.9845C404.828 87.0481 404.968 87.1412 405.085 87.2587C405.203 87.3762 405.296 87.5156 405.359 87.6691C405.423 87.8226 405.456 87.9872 405.456 88.1533C405.456 88.3194 405.423 88.4839 405.359 88.6374C405.296 88.7909 405.203 88.9304 405.085 89.0479C404.968 89.1653 404.828 89.2585 404.675 89.3221C404.521 89.3857 404.357 89.4184 404.191 89.4184Z" fill="#6C63FF"/>
<path d="M381.489 89.4184H357.382C357.046 89.4184 356.724 89.2851 356.487 89.0479C356.25 88.8106 356.117 88.4888 356.117 88.1533C356.117 87.8178 356.25 87.496 356.487 87.2587C356.724 87.0215 357.046 86.8882 357.382 86.8882H381.489C381.824 86.8882 382.146 87.0215 382.383 87.2587C382.62 87.496 382.754 87.8178 382.754 88.1533C382.754 88.4888 382.62 88.8106 382.383 89.0479C382.146 89.2851 381.824 89.4184 381.489 89.4184Z" fill="#6C63FF"/>
<path d="M427.032 79.2978H402.925C402.59 79.2978 402.268 79.1645 402.031 78.9272C401.793 78.69 401.66 78.3682 401.66 78.0327C401.66 77.6972 401.793 77.3754 402.031 77.1381C402.268 76.9009 402.59 76.7676 402.925 76.7676H427.032C427.198 76.7676 427.363 76.8003 427.516 76.8639C427.67 76.9274 427.809 77.0206 427.927 77.1381C428.044 77.2556 428.137 77.395 428.201 77.5485C428.264 77.702 428.297 77.8665 428.297 78.0327C428.297 78.1988 428.264 78.3633 428.201 78.5168C428.137 78.6703 428.044 78.8098 427.927 78.9272C427.809 79.0447 427.67 79.1379 427.516 79.2015C427.363 79.2651 427.198 79.2978 427.032 79.2978Z" fill="#6C63FF"/>
<path d="M378.694 60.1323H354.587C354.421 60.1327 354.256 60.1003 354.102 60.0369C353.948 59.9735 353.808 59.8804 353.691 59.7629C353.573 59.6454 353.479 59.5058 353.415 59.3521C353.352 59.1984 353.319 59.0336 353.319 58.8672C353.319 58.7008 353.352 58.536 353.415 58.3823C353.479 58.2286 353.573 58.089 353.691 57.9714C353.808 57.8539 353.948 57.7608 354.102 57.6974C354.256 57.634 354.421 57.6016 354.587 57.6021H378.694C379.029 57.6021 379.351 57.7353 379.588 57.9726C379.826 58.2098 379.959 58.5316 379.959 58.8672C379.959 59.2027 379.826 59.5245 379.588 59.7617C379.351 59.999 379.029 60.1323 378.694 60.1323Z" fill="#6C63FF"/>
<path d="M380.676 67.5236C380.44 67.5238 380.21 67.4501 380.017 67.3129C379.825 67.1757 379.681 66.9819 379.604 66.7585C379.527 66.5352 379.522 66.2934 379.59 66.0671C379.657 65.8408 379.794 65.6412 379.98 65.4963L386.153 60.6982C386.401 60.5054 386.606 60.2631 386.756 59.9869C386.905 59.7106 386.996 59.4062 387.021 59.0931C387.047 58.78 387.008 58.465 386.905 58.168C386.803 57.871 386.64 57.5984 386.427 57.3676L381.245 51.7573C381.144 51.6481 381.065 51.52 381.014 51.3804C380.962 51.2408 380.939 51.0925 380.945 50.9438C380.95 50.7951 380.986 50.6491 381.048 50.514C381.11 50.3789 381.198 50.2574 381.308 50.1564C381.417 50.0554 381.545 49.9769 381.685 49.9255C381.824 49.874 381.973 49.8505 382.121 49.8563C382.27 49.8622 382.416 49.8973 382.551 49.9596C382.686 50.0219 382.808 50.1102 382.909 50.2195L390.605 58.5504C390.711 58.6657 390.792 58.8018 390.844 58.9501C390.895 59.0984 390.915 59.2558 390.902 59.4122C390.889 59.5685 390.844 59.7205 390.769 59.8586C390.694 59.9966 390.592 60.1175 390.468 60.2139L381.371 67.2852C381.172 67.4399 380.928 67.5238 380.676 67.5236Z" fill="#6C63FF"/>
<path d="M353.368 67.5236C353.604 67.5238 353.834 67.4501 354.026 67.3129C354.219 67.1757 354.363 66.9819 354.44 66.7585C354.517 66.5352 354.521 66.2934 354.454 66.0671C354.387 65.8408 354.25 65.6412 354.064 65.4963L347.891 60.6982C347.643 60.5054 347.438 60.2631 347.288 59.9869C347.139 59.7106 347.048 59.4062 347.022 59.0931C346.996 58.78 347.036 58.465 347.138 58.168C347.241 57.871 347.403 57.5984 347.617 57.3676L352.799 51.7573C352.9 51.6481 352.978 51.52 353.03 51.3804C353.081 51.2408 353.105 51.0925 353.099 50.9438C353.093 50.7951 353.058 50.6491 352.996 50.514C352.934 50.3789 352.845 50.2574 352.736 50.1564C352.627 50.0554 352.499 49.9769 352.359 49.9255C352.219 49.874 352.071 49.8505 351.922 49.8563C351.774 49.8622 351.628 49.8973 351.493 49.9596C351.357 50.0219 351.236 50.1102 351.135 50.2195L343.439 58.5504C343.333 58.6657 343.251 58.8018 343.2 58.9501C343.149 59.0984 343.129 59.2558 343.142 59.4122C343.155 59.5685 343.2 59.7205 343.275 59.8586C343.349 59.9966 343.452 60.1175 343.576 60.2139L352.673 67.2852C352.871 67.4399 353.116 67.5238 353.368 67.5236Z" fill="#6C63FF"/>
<path d="M391.156 111.114H367.049C366.714 111.114 366.392 110.981 366.155 110.744C365.917 110.506 365.784 110.185 365.784 109.849C365.784 109.514 365.917 109.192 366.155 108.955C366.392 108.717 366.714 108.584 367.049 108.584H391.156C391.492 108.584 391.813 108.717 392.051 108.955C392.288 109.192 392.421 109.514 392.421 109.849C392.421 110.185 392.288 110.506 392.051 110.744C391.813 110.981 391.492 111.114 391.156 111.114Z" fill="#6C63FF"/>
<path d="M395.404 117.372C395.168 117.372 394.938 117.299 394.745 117.162C394.553 117.024 394.409 116.831 394.332 116.607C394.255 116.384 394.25 116.142 394.318 115.916C394.385 115.689 394.522 115.49 394.708 115.345L400.881 110.547C401.129 110.354 401.334 110.112 401.484 109.835C401.633 109.559 401.724 109.255 401.75 108.942C401.775 108.629 401.736 108.314 401.633 108.017C401.531 107.72 401.368 107.447 401.155 107.216L395.973 101.606C395.872 101.497 395.793 101.369 395.742 101.229C395.69 101.089 395.667 100.941 395.673 100.792C395.679 100.644 395.714 100.498 395.776 100.363C395.838 100.227 395.927 100.106 396.036 100.005C396.145 99.904 396.273 99.8256 396.413 99.7741C396.552 99.7226 396.701 99.6991 396.849 99.705C396.998 99.7108 397.144 99.7459 397.279 99.8082C397.414 99.8705 397.536 99.9588 397.637 100.068L405.333 108.399C405.439 108.514 405.521 108.65 405.572 108.799C405.623 108.947 405.643 109.104 405.63 109.261C405.617 109.417 405.572 109.569 405.497 109.707C405.422 109.845 405.32 109.966 405.196 110.062L396.099 117.134C395.9 117.289 395.656 117.372 395.404 117.372Z" fill="#6C63FF"/>
<path d="M353.368 117.372C353.604 117.372 353.834 117.299 354.026 117.162C354.219 117.024 354.363 116.831 354.44 116.607C354.517 116.384 354.521 116.142 354.454 115.916C354.387 115.689 354.25 115.49 354.064 115.345L347.891 110.547C347.643 110.354 347.438 110.112 347.288 109.835C347.139 109.559 347.048 109.255 347.022 108.942C346.996 108.629 347.036 108.314 347.138 108.017C347.241 107.72 347.403 107.447 347.617 107.216L352.799 101.606C353.003 101.385 353.111 101.093 353.099 100.792C353.087 100.492 352.957 100.209 352.736 100.005C352.515 99.8011 352.223 99.6932 351.922 99.705C351.622 99.7168 351.339 99.8474 351.135 100.068L343.439 108.399C343.333 108.514 343.251 108.65 343.2 108.799C343.149 108.947 343.129 109.104 343.142 109.261C343.155 109.417 343.2 109.569 343.275 109.707C343.349 109.845 343.452 109.966 343.576 110.062L352.673 117.134C352.871 117.289 353.116 117.372 353.368 117.372Z" fill="#6C63FF"/>
<path d="M355.519 113.828L360.586 102.236C360.722 101.93 360.973 101.69 361.285 101.569C361.596 101.448 361.943 101.455 362.25 101.589C362.557 101.723 362.797 101.973 362.92 102.284C363.043 102.595 363.037 102.942 362.905 103.25L357.837 114.841C357.771 114.994 357.676 115.133 357.556 115.249C357.436 115.365 357.295 115.456 357.14 115.517C356.985 115.578 356.819 115.608 356.653 115.605C356.486 115.602 356.322 115.566 356.169 115.499C356.016 115.433 355.878 115.336 355.763 115.216C355.648 115.096 355.557 114.954 355.497 114.799C355.436 114.643 355.407 114.478 355.411 114.311C355.415 114.144 355.452 113.98 355.519 113.828Z" fill="#6C63FF"/>
</g>
<defs>
<clipPath id="clip0_1_5351">
<rect width="600" height="379.532" fill="white" transform="translate(0.0566406)"/>
</clipPath>
</defs>
</svg>
